<svg width="262" height="225" viewBox="0 0 262 225" fill="none" xmlns="http://www.w3.org/2000/svg">
<g clip-path="url(#clip0_2332_16915)">
<path d="M139.006 71.3132C139.006 71.3132 150.781 81.0622 206.283 90.1714C261.784 99.2806 279.237 146.239 243.024 185.037C201.094 229.964 168.67 174.213 127.86 160.104C87.0494 145.997 5.56855 157.911 11.3616 97.0391C17.1547 36.1657 70.2538 26.8524 99.4773 46.2856C132.642 68.3361 139.006 71.3132 139.006 71.3132Z" fill="#FFF3EE"/>
<path d="M55.5137 224.619C55.4526 224.748 55.3902 224.875 55.3291 225.001H55.3279C55.3902 224.873 55.4513 224.746 55.5137 224.619Z" fill="url(#paint0_linear_2332_16915)"/>
<path d="M59.4477 222.217C59.4463 222.219 59.4463 222.219 59.4448 222.219C59.4463 222.219 59.4477 222.217 59.4477 222.217Z" fill="url(#paint1_linear_2332_16915)"/>
<path d="M188.44 145.48C188.44 145.48 186.367 145.88 184.905 144.361C184.905 144.361 184.148 146.971 183.12 148.389C183.12 148.389 186.07 154.297 185.106 156.204C184.142 158.11 182.818 159.896 179.716 158.888L176.889 151.938L177.755 140L182.891 132.057L187.941 130.697L188.44 145.48Z" fill="url(#paint2_linear_2332_16915)"/>
<path d="M201.732 119.382L197.681 126.082L189.511 124.736L181.4 123.4C181.4 123.4 175.554 132.469 171.459 137.977C167.365 143.484 162.711 139.382 162.227 138.486C162.115 138.279 162.082 137.973 162.121 137.588C162.252 136.305 163.196 134.144 164.753 131.843C164.947 131.557 165.209 131.169 165.527 130.699C168.528 126.265 176.451 114.608 177.948 113.582C178.569 113.155 179.49 112.553 180.564 112.007C182.349 111.097 184.549 110.345 186.478 110.827C189.567 111.6 199.214 115.121 199.214 115.121L201.732 119.382Z" fill="url(#paint3_linear_2332_16915)"/>
<path d="M177.841 154.282L179.716 158.889C179.716 158.889 181.106 158.887 181.489 157.792C181.872 156.696 179.86 153.356 179.86 153.356L177.841 154.282Z" fill="url(#paint4_linear_2332_16915)"/>
<path d="M167.388 132.452C166.725 134.655 165.127 138.696 162.478 137.867L162.12 137.589C162.251 136.306 163.195 134.145 164.751 131.844C164.946 131.558 165.208 131.17 165.526 130.7L166.404 130.859C167.142 130.99 167.603 131.735 167.388 132.452Z" fill="url(#paint5_linear_2332_16915)"/>
<path d="M172.924 141.613C173.024 142.695 173.944 145.651 174.343 147.968C174.368 148.111 174.39 148.253 174.41 148.391C174.494 148.954 174.539 149.465 174.523 149.886C174.443 152.077 174.826 153.281 174.826 153.281C174.828 153.284 174.831 153.286 174.833 153.288C174.851 153.299 174.866 153.31 174.883 153.32C174.889 153.325 174.897 153.329 174.904 153.334C174.911 153.337 174.917 153.342 174.923 153.346C174.927 153.349 174.93 153.351 174.933 153.354C175.549 153.754 178.697 155.561 181.237 152.647C181.237 152.647 182.591 150.235 182.194 145.971C181.999 143.888 181.875 143.176 181.799 142.992C182.195 142.279 183.588 139.725 184.64 137.205C185.877 134.235 188.713 129.813 188.713 129.813L182.364 122.451C182.364 122.451 179.625 120.762 177.727 125.253C175.828 129.744 175.271 128.918 175.366 129.161C175.459 129.404 172.79 140.191 172.924 141.613Z" fill="url(#paint6_linear_2332_16915)"/>
<path d="M174.277 147.424C174.302 147.61 174.325 147.791 174.343 147.967C174.368 148.11 174.391 148.252 174.411 148.39C174.494 148.953 174.539 149.464 174.523 149.885C174.443 152.075 174.826 153.28 174.826 153.28C174.829 153.283 174.831 153.285 174.834 153.286C174.851 153.297 174.866 153.309 174.883 153.319C174.897 153.329 174.91 153.337 174.923 153.345C174.927 153.347 174.931 153.35 174.933 153.352C175.374 153.621 175.88 153.683 176.26 153.682C176.581 153.681 176.843 153.427 176.859 153.107L176.952 151.251C176.688 146.381 174.347 147.392 174.277 147.424Z" fill="url(#paint7_linear_2332_16915)"/>
<path d="M46.6814 178.779C45.9181 180.575 36.7614 178.415 26.2304 173.954C15.6994 169.493 7.78114 164.422 8.54565 162.626C9.30891 160.83 18.4656 162.99 28.9966 167.451C39.5276 171.912 47.4459 176.983 46.6814 178.779Z" fill="url(#paint8_linear_2332_16915)"/>
<path d="M71.8091 127.405C71.8091 127.405 73.7509 128.23 75.4994 127.053C75.4994 127.053 75.6902 129.763 76.3974 131.365C76.3974 131.365 72.2693 136.523 72.8093 138.589C73.3506 140.655 74.2685 142.68 77.5136 142.344L81.7415 136.142L83.4064 124.288L80.0578 115.447L75.4071 113.058L71.8091 127.405Z" fill="url(#paint9_linear_2332_16915)"/>
<path d="M98.9111 126.063C98.2476 126.839 92.8349 129.873 89.9914 123.63C87.1479 117.386 83.3416 107.295 83.3416 107.295L75.129 106.9L66.8578 106.502L64.3074 99.1026L67.6672 95.4646C67.6672 95.4646 77.8403 94.0458 81.0231 93.9375C83.0098 93.8703 85.004 95.0664 86.5567 96.3296C87.4909 97.0888 88.2653 97.8717 88.7829 98.4193C90.161 99.8768 96.4891 115.692 97.8386 119.041C99.1892 122.389 99.5746 125.287 98.9111 126.063Z" fill="url(#paint10_linear_2332_16915)"/>
<path d="M80.3171 138.233L77.5148 142.344C77.5148 142.344 76.1553 142.05 76.0119 140.899C75.8685 139.749 78.5387 136.904 78.5387 136.904L80.3171 138.233Z" fill="url(#paint11_linear_2332_16915)"/>
<path d="M86.558 96.3296L75.129 106.9L66.8578 106.502L64.3074 99.1026L67.6672 95.4646C67.6672 95.4646 77.8403 94.0458 81.0231 93.9375C83.0098 93.8703 85.004 95.0664 86.558 96.3296Z" fill="url(#paint12_linear_2332_16915)"/>
<path d="M68.6912 108.715C68.6912 108.715 68.8758 102.79 68.3981 100.653C67.9205 98.5164 67.2296 97.9028 67.2296 97.9028C67.2296 97.9028 73.2459 93.8293 75.1815 91.1247C77.1171 88.4202 78.0063 88.5447 78.0063 88.5447C78.0063 88.5447 83.8442 85.7394 86.5269 84.1749C89.2095 82.6104 105.631 80.1225 104.959 72.9138C104.959 72.9138 104.283 71.2672 103.465 70.6349C102.646 70.0027 90.8109 70.2877 85.9694 72.4558C81.1279 74.6238 72.1122 76.9849 68.7249 79.8736C65.3376 82.7623 56.6624 90.3879 53.3025 92.1603C49.9426 93.9326 43.2242 98.489 42.5358 99.6279C41.8473 100.768 42.3312 114.08 45.5826 117.179C48.8339 120.278 62.181 124.504 64.1915 122.083C66.2019 119.662 68.6912 108.715 68.6912 108.715Z" fill="url(#paint13_linear_2332_16915)"/>
<path d="M52.4495 106.868C52.4495 106.868 59.2016 103.787 65.9911 111.758C65.9911 111.758 55.4476 105.582 52.4495 106.868Z" fill="url(#paint14_linear_2332_16915)"/>
<path d="M95.52 118.497C95.52 118.497 95.4839 125.732 98.8612 125.422L99.4922 125.119C99.4922 125.119 98.628 120.107 97.9607 118.578L95.52 118.497Z" fill="url(#paint15_linear_2332_16915)"/>
<path d="M87.7926 126.877C87.4671 127.914 85.9456 130.611 85.0663 132.793C85.0115 132.927 84.9603 133.061 84.9104 133.192C84.7109 133.725 84.5587 134.216 84.4864 134.63C84.1035 136.788 83.4749 137.885 83.4749 137.885C83.4725 137.888 83.4687 137.889 83.4662 137.89C83.4475 137.898 83.43 137.905 83.4113 137.912C83.4039 137.915 83.3964 137.918 83.3876 137.92C83.3802 137.923 83.3739 137.927 83.3664 137.929C83.3627 137.93 83.3577 137.933 83.3552 137.934C82.668 138.197 79.2109 139.304 77.3402 135.922C77.3402 135.922 76.5245 133.279 77.8103 129.194C78.4389 127.199 78.7108 126.53 78.8243 126.365C78.5873 125.585 77.7629 122.796 77.2653 120.111C76.6817 116.949 74.8396 112.03 74.8396 112.03L82.5969 106.164C82.5969 106.164 85.63 105.088 86.5405 109.876C87.4509 114.664 88.1693 113.974 88.0258 114.192C87.8837 114.409 88.2216 125.514 87.7926 126.877Z" fill="url(#paint16_linear_2332_16915)"/>
<path d="M191.151 78.7659L184.858 125.382C184.459 128.336 181.736 130.408 178.777 130.01L80.4656 116.792C77.435 116.385 75.3086 113.602 75.7176 110.578L82.0108 63.9613C82.4099 61.0079 85.1325 58.9357 88.092 59.3339L186.403 72.5516C189.433 72.9586 191.559 75.7415 191.151 78.7659Z" fill="#382729"/>
<path d="M189.923 77.6731C189.999 78.1049 190.019 78.5518 189.976 79.0098C189.97 79.0795 189.961 79.1492 189.953 79.2201L188.024 93.4994L187.896 94.4577L187.895 94.459L187.653 96.2475L186.264 106.537L184.199 121.826L184.113 122.456L183.823 124.611C183.62 126.125 182.738 127.387 181.523 128.13C181.199 128.331 180.851 128.493 180.484 128.612C179.802 128.836 179.059 128.913 178.302 128.811L171.175 127.854L165.9 127.145L149.917 124.995L148.107 124.751L146.942 124.596L144.612 124.283L144.351 124.248L116.934 120.562H116.928L112.405 119.953L109.693 119.589L108.346 119.408L106.244 119.124L105.102 118.971L99.7429 118.251L97.3982 117.935L81.2213 115.76C78.6122 115.409 76.7378 113.135 76.8774 110.538C76.8812 110.471 76.8849 110.402 76.8924 110.335C76.8986 110.265 76.9061 110.194 76.9148 110.124L80.488 83.6596L81.6029 75.4017L82.3999 69.496L82.552 68.3647L82.8925 65.8469L83.0434 64.7317C83.1008 64.3011 83.213 63.8879 83.3764 63.4971C83.7032 62.7105 84.2332 62.0185 84.9304 61.4895C85.9742 60.6955 87.2638 60.3557 88.5633 60.5299L96.2696 61.5667L104.729 62.7043L105.868 62.8573L107.622 63.0926L109.067 63.288L120.841 64.8699L121.745 64.9918L122.865 65.1424L137.948 67.1686L139.564 67.3864L160.934 70.259L176.654 72.3723L177.92 72.5428L185.647 73.5821C187.866 73.882 189.555 75.5722 189.923 77.6731Z" fill="#E7EEFC"/>
<path d="M90.8095 97.7547C89.1183 101.538 87.0181 104.525 85.0451 107.029C83.0484 109.561 81.1802 111.601 79.9978 113.468C77.6457 117.182 74.9157 121.299 72.7406 132.336C70.5668 143.372 60.7541 150.1 58.614 152.293C56.4751 154.486 54.0432 161.125 49.6656 163.835C45.2893 166.546 41.6651 171.009 39.2593 188.128L30.1937 187.199L18.9206 186.045L13.7923 185.52L7.41553 184.867C7.41553 184.867 11.3827 173.216 17.2843 162.021C23.1871 150.827 29.1947 138.875 31.8636 129.36C34.5326 119.846 38.9238 109.037 39.7033 106.156C40.4828 103.275 41.4356 100.042 43.6368 98.6048C45.8356 97.1685 43.6568 106.459 45.0299 110.017C46.403 113.574 49.1967 118.187 54.5121 117.879C54.5121 117.879 56.858 117.376 59.7676 115.235C62.2632 113.399 68.2259 103.736 71.6967 99.4971C72.2742 98.7927 72.7818 98.2389 73.1933 97.8953C76.0867 95.4746 84.0237 87.1694 87.0181 87.5888C90.0138 88.0058 94.2105 90.1452 90.8095 97.7547Z" fill="url(#paint17_linear_2332_16915)"/>
<path d="M90.8095 97.7547C89.1183 101.538 87.0181 104.525 85.0451 107.029C78.8118 107.17 74.095 104.688 71.8576 99.8905C71.7965 99.7598 71.7441 99.6291 71.6992 99.4959C72.2767 98.7915 72.7842 98.2376 73.1958 97.8941C76.0892 95.4734 84.0262 87.1682 87.0206 87.5876C90.0138 88.0058 94.2105 90.1453 90.8095 97.7547Z" fill="url(#paint18_linear_2332_16915)"/>
<path d="M91.0652 91.6837C90.7397 93.2668 86.7924 98.2128 86.7924 98.2128C83.3989 98.1506 80.6277 94.0285 80.6277 94.0285C80.6277 94.0285 84.2295 88.5423 86.3135 88.0793C88.3975 87.6151 91.3907 90.1005 91.0652 91.6837Z" fill="url(#paint19_linear_2332_16915)"/>
<path d="M86.7924 98.2139C83.3989 98.1517 80.6277 94.0295 80.6277 94.0295C80.6277 94.0295 83.9788 94.2013 86.7924 98.2139Z" fill="url(#paint20_linear_2332_16915)"/>
<path d="M85.2461 132.276C85.1825 132.452 85.1226 132.626 85.0677 132.793C85.0129 132.927 84.9617 133.062 84.9118 133.192C84.7123 133.725 84.5601 134.217 84.4878 134.63C84.1049 136.788 83.4764 137.886 83.4764 137.886C83.4739 137.888 83.4701 137.889 83.4676 137.891C83.4489 137.898 83.4315 137.906 83.4127 137.912C83.3978 137.918 83.3828 137.924 83.3679 137.929C83.3641 137.93 83.3591 137.933 83.3566 137.934C82.869 138.105 82.3614 138.059 81.9897 137.978C81.6767 137.909 81.4734 137.606 81.5258 137.289L81.8251 135.455C83.1084 130.75 85.1837 132.23 85.2461 132.276Z" fill="url(#paint21_linear_2332_16915)"/>
<path d="M67.9454 97.6988C67.9454 97.6988 64.5045 100.238 59.7253 96.5488C59.7253 96.5488 66.4076 98.7792 67.9454 97.6988Z" fill="url(#paint22_linear_2332_16915)"/>
<path d="M50.3142 122.059C50.3142 122.059 50.8779 117.826 56.8568 116.963C56.8568 116.963 50.6048 120.205 50.3142 122.059Z" fill="url(#paint23_linear_2332_16915)"/>
<path d="M58.6154 152.293C56.4765 154.486 54.0445 161.125 49.667 163.835C45.2907 166.546 41.6665 171.009 39.2607 188.127L30.1951 187.199C35.3421 160.481 58.6154 152.293 58.6154 152.293Z" fill="url(#paint24_linear_2332_16915)"/>
<path d="M36.0991 138.459C36.0991 138.459 36.2376 115.915 42.6006 115.367C48.9636 114.821 37.1068 155.327 36.0991 138.459Z" fill="url(#paint25_linear_2332_16915)"/>
<path d="M18.9233 186.044L13.7949 185.519C13.8585 184.822 13.9658 184.024 14.1217 183.12C14.1217 183.12 21.8491 150.92 31.133 152.253C37.2678 153.134 26.0396 177.005 18.9233 186.044Z" fill="url(#paint26_linear_2332_16915)"/>
<path d="M18.6962 168.358L8.54555 162.627L0 185.539C0 185.539 27.8179 207.365 43.0595 204.559L46.6813 178.779L18.6962 168.358Z" fill="#E83E21"/>
<path d="M199.575 191.704C199.944 193.62 209.35 193.428 220.586 191.275C231.821 189.122 240.63 185.824 240.261 183.908C239.892 181.993 230.486 182.185 219.25 184.338C208.014 186.491 199.207 189.789 199.575 191.704Z" fill="url(#paint27_linear_2332_16915)"/>
<path d="M180.563 112.007L189.511 124.738L197.682 126.083L201.732 119.383L202.565 112.796C202.565 112.796 189.565 111.601 186.477 110.828C184.548 110.344 182.348 111.097 180.563 112.007Z" fill="url(#paint28_linear_2332_16915)"/>
<path d="M223.701 127.336C223.558 128.659 215.675 141.984 211.207 142.488C206.739 142.994 192.979 135.286 192.846 132.144C192.712 129.003 194.828 120.283 194.828 120.283C194.828 120.283 198.207 115.925 199.882 114.512C201.277 113.336 203.064 112.299 203.625 111.984C203.739 111.921 203.802 111.886 203.802 111.886C203.802 111.886 202.762 104.179 202.859 100.859C202.958 97.5358 202.173 97.0989 202.173 97.0989C202.173 97.0989 198.782 91.7496 198.038 88.4751C197.558 86.3643 191.529 80.0043 189.605 74.543C188.773 72.182 188.707 69.9903 190.186 68.381C190.186 68.381 190.484 68.2055 190.907 68.0101L190.91 68.0089C191.447 67.76 192.181 67.475 192.757 67.47C193.324 67.465 196.357 69.6742 199.401 72.4372C201.914 74.7173 204.436 77.377 205.586 79.4791C208.126 84.1277 213.874 91.4509 214.821 95.7958C215.766 100.142 218.052 111.45 219.655 114.89C221.256 118.328 223.844 126.012 223.701 127.336Z" fill="url(#paint29_linear_2332_16915)"/>
<path d="M192.689 120.216C192.689 120.216 200.564 116.993 205.341 120.169C210.119 123.345 205.828 128.875 205.279 129.176C204.73 129.477 212.446 135.523 207.353 139.791C202.26 144.059 192.689 120.216 192.689 120.216Z" fill="url(#paint30_linear_2332_16915)"/>
<path d="M211.691 129.46C211.691 129.46 205.738 125.033 197.422 131.401C197.422 131.401 209.029 127.574 211.691 129.46Z" fill="url(#paint31_linear_2332_16915)"/>
<path d="M238.928 212.407C237.113 213.036 234.914 213.743 232.482 214.411L227.801 213.898L216.536 212.663L207.477 211.671C208.272 200.722 207.513 194.659 205.903 190.779C204.977 188.548 203.771 187.04 202.418 185.738C198.71 182.17 197.729 175.17 196.1 172.578C194.469 169.986 186.292 161.35 186.49 150.105C186.687 138.858 184.884 134.26 183.367 130.137C182.603 128.062 181.205 125.677 179.787 122.784C178.385 119.922 176.96 116.561 176.104 112.507C174.382 104.355 178.935 103.144 181.95 103.362C184.965 103.58 190.977 113.363 193.297 116.337C193.627 116.759 194.006 117.407 194.423 118.216C196.925 123.089 200.72 133.785 202.772 136.105C205.166 138.808 207.353 139.791 207.353 139.791C212.485 141.206 216.187 137.281 218.278 134.092C220.37 130.902 220.195 121.362 222.044 123.228C223.892 125.094 224.144 128.454 224.298 131.435C224.454 134.416 226.471 145.905 227.078 155.766C227.608 164.384 230.24 175.361 233.175 186.121C233.596 187.672 234.026 189.219 234.457 190.754C236.886 199.425 238.309 208.117 238.928 212.407Z" fill="url(#paint32_linear_2332_16915)"/>
<path d="M176.104 112.507C176.961 116.561 178.386 119.922 179.787 122.784C185.851 124.227 190.985 122.791 194.183 118.57C194.27 118.455 194.349 118.337 194.421 118.217C194.006 117.407 193.625 116.76 193.295 116.337C190.976 113.363 184.964 103.58 181.948 103.362C178.935 103.144 174.383 104.355 176.104 112.507Z" fill="url(#paint33_linear_2332_16915)"/>
<path d="M177.133 106.519C177.118 108.136 179.936 113.799 179.936 113.799C183.266 114.45 186.844 111 186.844 111C186.844 111 184.477 104.88 182.537 103.991C180.599 103.099 177.148 104.902 177.133 106.519Z" fill="url(#paint34_linear_2332_16915)"/>
<path d="M179.936 113.798C183.265 114.449 186.844 110.998 186.844 110.998C186.844 110.998 183.532 110.465 179.936 113.798Z" fill="url(#paint35_linear_2332_16915)"/>
<path d="M205.762 114.44C205.762 114.44 204.477 113.093 203.626 111.984C203.739 111.921 203.803 111.886 203.803 111.886C203.803 111.886 202.763 104.179 202.86 100.859C202.958 97.5357 202.174 97.0988 202.174 97.0988C202.174 97.0988 198.783 91.7496 198.038 88.475C197.558 86.3642 191.529 80.0043 189.605 74.543C192.651 77.2263 203.38 87.0201 203.713 92.1292C204.099 98.0871 204.099 98.0871 204.099 98.0871C204.099 98.0871 209.193 108.819 205.762 114.44Z" fill="url(#paint36_linear_2332_16915)"/>
<path d="M203.802 111.886C203.802 111.886 205.003 115.984 211.045 115.932C211.045 115.931 204.372 113.674 203.802 111.886Z" fill="url(#paint37_linear_2332_16915)"/>
<path d="M202.322 97.2992C202.322 97.2992 205.671 99.9577 210.577 96.4392C210.577 96.4392 203.821 98.4331 202.322 97.2992Z" fill="url(#paint38_linear_2332_16915)"/>
<path d="M210.579 144.759C210.579 144.759 210.92 140.503 205.255 138.405C205.255 138.406 210.686 142.886 210.579 144.759Z" fill="url(#paint39_linear_2332_16915)"/>
<path d="M196.1 172.579C197.729 175.171 198.71 182.171 202.418 185.739C206.127 189.308 208.73 194.43 207.478 211.67L216.536 212.664C217.128 185.463 196.1 172.579 196.1 172.579Z" fill="url(#paint40_linear_2332_16915)"/>
<path d="M211.769 156.324C211.769 156.324 206.173 138.591 198.885 141.288C191.596 143.985 214.705 170.14 211.769 156.324Z" fill="url(#paint41_linear_2332_16915)"/>
<path d="M244.132 210.432C244.132 210.432 242.125 211.3 238.926 212.407C237.111 213.036 234.913 213.743 232.481 214.411C221.09 217.544 204.572 219.856 198.277 209.567L199.574 191.705L205.901 190.779L229.13 187.383L233.174 186.12L240.259 183.907L244.132 210.432Z" fill="#E83E21"/>
<path d="M199.403 72.4372C194.712 75.3757 190.908 68.0101 190.908 68.0101L190.912 68.0089C191.448 67.76 192.183 67.475 192.759 67.47C193.325 67.4638 196.358 69.6729 199.403 72.4372Z" fill="url(#paint42_linear_2332_16915)"/>
<path d="M89.0249 65.8258C87.3687 67.384 86.598 69.2509 87.3014 69.9964C88.006 70.742 89.9192 70.0836 91.5754 68.5266C93.2316 66.9683 94.0024 65.1014 93.299 64.3559C92.5943 63.6104 90.6812 64.2676 89.0249 65.8258Z" fill="white"/>
<path d="M92.9762 72.7342C93.8694 71.894 94.2856 70.8869 93.9057 70.4848C93.5259 70.0826 92.4939 70.4377 91.6007 71.2778C90.7075 72.118 90.2913 73.1251 90.6712 73.5273C91.051 73.9294 92.083 73.5743 92.9762 72.7342Z" fill="white"/>
<path d="M146.275 179.775C146.275 179.775 124.548 158.565 96.9493 165.227C82.0295 168.829 105.654 174.846 119.644 175.825C133.633 176.802 146.275 179.775 146.275 179.775Z" fill="#FFF3EE"/>
<path d="M174.894 100.975C175.371 95.7296 157.837 89.8556 135.732 87.8554C113.627 85.8552 95.3206 88.4862 94.844 93.732C94.3673 98.9777 111.901 104.852 134.006 106.852C156.111 108.852 174.417 106.221 174.894 100.975Z" fill="white"/>
<path d="M130.824 102.439C130.545 102.594 137.487 106.467 145.988 102.772C153.403 99.5469 145.711 66.8251 143.879 66.7081C142.045 66.5912 137.732 66.8214 137.216 69.4587C136.701 72.096 130.824 102.439 130.824 102.439Z" fill="#382729"/>
<path d="M143.055 58.3979C142.138 66.667 139.399 89.137 138.12 99.5879C137.79 102.278 139.799 104.437 142.063 103.828L174.749 95.0352C176.116 94.668 177.183 93.3587 177.436 91.7432L183.367 53.8701C183.773 51.2763 181.966 49.051 179.745 49.4094L146.07 54.8371C144.51 55.0873 143.258 56.5646 143.055 58.3979Z" fill="#CC2417"/>
<path d="M142.976 58.4999L139.812 85.1517L138.032 100.142C137.733 102.664 135.523 104.305 133.506 103.505L95.1748 88.2831C93.9687 87.8052 93.1543 86.5594 93.0271 85.1069C93.0034 84.8331 93.0047 84.5531 93.0309 84.2693L96.8559 43.9069C97.0941 41.3991 99.233 39.6902 101.262 40.386C110.475 43.5435 133.066 51.5986 140.75 54.3417C142.268 54.8831 143.199 56.6243 142.976 58.4999Z" fill="#E83E21"/>
<path d="M184.274 47.9756C184.274 47.9756 144.731 55.01 143.457 54.5545C142.183 54.099 97.4109 38.376 97.4109 38.376L143.485 37.8806L184.274 47.9756Z" fill="#E83E21"/>
<path d="M143.457 54.5546L141.183 71.1812C141.183 71.1812 183.061 63.4435 183.276 61.8753C183.49 60.3071 187.853 48.9377 184.276 47.9744C183.187 47.6819 143.457 54.5546 143.457 54.5546Z" fill="#CC2417"/>
<path d="M143.457 54.5545C143.457 54.5545 141.988 72.2938 141.183 71.1811C140.377 70.0709 94.1696 54.2359 94.111 53.4281C94.0636 52.7847 94.5126 43.6008 96.0366 39.9031C96.4232 38.9671 96.8772 38.3822 97.411 38.3772L115.096 44.5902L120.335 46.431L143.449 54.5508L143.457 54.5545Z" fill="#E83E21"/>
<path d="M94.1108 53.4282L141.182 71.1812C141.182 71.1812 141.626 86.791 139.812 85.1531C137.997 83.5152 140.706 78.2132 94.1108 53.4282Z" fill="#CC2417"/>
<path d="M141.183 71.1813L182.011 62.5288C182.011 62.5288 180.332 73.2473 180.567 71.7538C180.8 70.2603 148.992 61.0552 139.812 85.1544L141.183 71.1813Z" fill="#A00B04"/>
<path d="M139.605 44.6089L162.469 51.3708C162.469 51.3708 164.233 50.2382 163.043 49.2064C161.854 48.1759 139.605 44.6089 139.605 44.6089Z" fill="#382729"/>
<path d="M97.411 38.3772L115.096 44.5902C108.834 42.7893 99.3715 40.7071 96.0366 39.9031C96.4232 38.9671 96.8772 38.3822 97.411 38.3772Z" fill="#FC7668"/>
<path d="M115.539 44.7185C117.571 45.3134 119.224 45.8723 120.152 46.339L115.539 44.7185Z" fill="#9D8DFC"/>
<path d="M143.455 54.526C143.455 54.526 143.452 54.5348 143.447 54.5509C143.403 54.7227 143.137 55.7495 143.202 56.378C143.27 57.0563 125.083 48.7934 120.335 46.4312C120.274 46.4 120.214 46.3702 120.157 46.3416L143.455 54.526Z" fill="#FC7668"/>
<path d="M159.895 67.7797L156.014 100.075C156.014 100.075 161.918 93.4558 162.013 89.6561C162.107 85.8575 165.192 66.0933 163.195 66.5165C161.198 66.9396 159.895 67.7797 159.895 67.7797Z" fill="#382729"/>
<path d="M139.812 85.1517L138.032 100.142C137.733 102.665 135.523 104.305 133.506 103.505L95.1747 88.2832C93.9687 87.8052 93.1543 86.5594 93.0271 85.1069C101.316 88.9167 126.406 98.7403 139.812 85.1517Z" fill="#E22F17"/>
<path d="M128.617 18.4338C128.617 18.4338 136.358 26.5984 142.795 38.5789L140.725 37.9106L128.617 18.4338Z" fill="#382729"/>
<path d="M120.804 63.1472L123.213 64.0035L125.557 64.8374C125.557 64.8374 119.938 92.0842 119.676 97.6488C119.676 97.6488 116.484 82.0651 117.123 75.6218C117.762 69.1785 120.804 63.1472 120.804 63.1472Z" fill="#382729"/>
<path d="M143.368 39.5921L140.281 40.8454L138.568 41.5399C116.315 43.123 111.08 38.9922 110.075 35.7985C109.788 34.8912 109.844 34.0611 109.947 33.4574C109.967 33.3392 109.988 33.2297 110.011 33.1313C110.533 30.7293 116.082 18.8047 119.978 14.8469C122.052 12.7398 125.417 14.9527 128.617 18.4351C131.432 21.4956 134.117 25.5368 135.689 28.4902C139.047 34.8028 143.368 39.5921 143.368 39.5921Z" fill="#FFC000"/>
<path d="M119.269 63.8493C120.314 64.2015 123.01 65.1499 122.59 63.8206C122.169 62.4914 124.744 51.0921 130.636 48.13C136.529 45.1678 139.605 44.609 139.605 44.609C139.605 44.609 132.022 44.1647 131.044 44.5169C130.068 44.8691 120.673 50.8419 120.602 50.8133C120.532 50.7859 119.269 63.8493 119.269 63.8493Z" fill="#382729"/>
<path d="M171.771 52.9129C171.843 56.1837 171.407 61.7582 170.693 67.8904C169.185 80.879 166.447 96.3618 164.718 97.7334C161.85 100.006 154.592 100.457 156.014 100.074C156.878 99.8417 159.451 83.1815 160.943 69.3851C161.689 62.4863 162.165 56.3044 162.022 53.2489C161.982 52.3677 161.889 51.7467 161.737 51.4442C161.608 51.1866 161.381 50.9327 161.068 50.6825C160.676 50.3689 160.151 50.0615 159.521 49.7615L145.533 45.9555C142.121 45.2897 139.388 44.8404 138.873 44.6836L140.925 44.2691L147.92 42.854C147.92 42.854 161.56 44.8752 168.114 47.7839C169.295 48.3066 170.245 48.8592 170.845 49.4342C171.116 49.6943 171.315 49.9582 171.431 50.227C171.632 50.6888 171.741 51.6222 171.771 52.9129Z" fill="#FFD45C"/>
<path d="M138.873 44.6825C134.549 45.5574 133.885 45.7354 130.275 47.3683C129.435 47.7492 128.436 48.2072 127.197 48.771C127.168 48.7847 127.138 48.7971 127.108 48.8108C126.455 49.107 125.851 49.8165 125.292 50.8532C124.36 52.5869 123.556 55.2392 122.867 58.4179C122.867 58.4191 122.865 58.4204 122.865 58.4216C122.446 60.3495 122.07 62.4703 121.73 64.6994C119.553 79.0123 118.942 97.7211 118.942 97.7211C118.942 97.7211 109.39 97.3764 107.659 93.2405C107.212 92.1714 107.122 88.5185 107.286 83.6459C107.69 71.5746 109.644 52.0231 111.541 45.7939C111.84 44.8094 112.14 44.1573 112.43 43.9208C112.538 43.8337 112.664 43.749 112.812 43.6669C113.539 43.2599 114.739 42.904 116.203 42.5965C122.418 41.291 133.413 40.8367 133.413 40.8367C133.413 40.8367 145.196 42.3538 146.746 42.9662C148.299 43.5798 144.223 43.5997 138.873 44.6825Z" fill="#FFD45C"/>
<path d="M159.521 49.7603C162.345 49.728 165.964 49.3397 168.115 47.7814C161.561 44.8728 147.921 42.8516 147.921 42.8516L140.926 44.2667L145.534 45.9531L159.521 49.7603Z" fill="#FFC000"/>
<path d="M170.694 67.8905C169.186 80.8792 166.448 96.362 164.719 97.7335C161.851 100.006 154.593 100.457 156.015 100.075C156.879 99.8419 159.452 83.1817 160.944 69.3853C163.943 67.099 166.905 65.8407 169.259 66.8563C169.798 67.089 170.274 67.44 170.694 67.8905Z" fill="#FFC000"/>
<path d="M171.77 52.913C169.891 52.4314 166.542 51.987 162.02 53.2491C161.98 52.3679 161.888 51.7468 161.736 51.4444C161.606 51.1868 161.379 50.9329 161.066 50.6827C164.346 50.3404 168.649 49.8513 170.844 49.4319C171.114 49.692 171.314 49.9559 171.43 50.2247C171.632 50.6889 171.74 51.6224 171.77 52.913Z" fill="white"/>
<path d="M127.197 48.7708C127.168 48.7845 127.138 48.797 127.108 48.8107C126.455 49.1069 125.851 49.8163 125.292 50.8531C124.811 50.0926 123.327 49.0023 118.528 47.2836C115.834 46.3177 113.494 45.9108 111.541 45.7938C111.84 44.8093 112.14 44.1571 112.43 43.9206C112.537 43.8335 112.663 43.7489 112.812 43.6667C116.199 44.6911 124.826 47.535 127.197 48.7708Z" fill="white"/>
<path d="M138.873 44.6825C134.549 45.5574 133.886 45.7354 130.275 47.3683C121.64 46.9974 117.85 44.7173 116.205 42.5978C122.419 41.2922 133.414 40.8379 133.414 40.8379C133.414 40.8379 145.197 42.3551 146.748 42.9674C148.299 43.5797 144.223 43.5997 138.873 44.6825Z" fill="#FFC000"/>
<path d="M121.732 64.6992C119.553 79.0121 118.942 97.7209 118.942 97.7209C118.942 97.7209 109.39 97.3762 107.659 93.2404C107.212 92.1713 107.122 88.5184 107.286 83.6458C111.458 87.2427 117.276 86.7137 121.732 64.6992Z" fill="#FFC000"/>
<path d="M120.174 34.1207C120.611 35.959 121.179 37.1986 121.187 37.2808C121.187 37.2808 114.502 36.3834 110.074 35.7985C110.067 35.7785 110.061 35.7599 110.056 35.74C110.049 35.7126 110.04 35.6852 110.032 35.6578C110.017 35.6031 110.002 35.5483 109.991 35.4948C109.979 35.4475 109.967 35.4014 109.959 35.3541C109.951 35.3205 109.945 35.2857 109.939 35.2508C109.875 34.9111 109.858 34.5862 109.864 34.2875C109.868 34.1643 109.874 34.0461 109.884 33.9316C109.889 33.8743 109.895 33.8195 109.901 33.7648C109.915 33.6553 109.93 33.5532 109.948 33.4549C109.967 33.3366 109.989 33.2271 110.011 33.1288C110.534 30.7267 116.082 18.8022 119.978 14.8444C120.871 13.9371 122.006 13.8313 123.262 14.2843C123.871 14.5034 124.508 14.8518 125.16 15.3036C126.289 16.0877 127.464 17.178 128.619 18.4326C118.854 22.0182 119.139 29.7559 120.174 34.1207Z" fill="#FFD45C"/>
<path d="M123.261 14.2856C123.869 14.5047 124.507 14.8532 125.159 15.305C124.512 15.6236 123.637 16.2845 122.595 17.5228C119.905 20.7177 116.241 28.494 116.673 33.4276C116.678 33.4886 116.685 33.5483 116.691 33.6093C117.232 38.5329 113.281 33.9453 113.281 33.9453C113.267 33.8022 113.317 33.506 113.426 33.0828C114.245 29.8942 118.381 19.5403 123.261 14.2856Z" fill="white"/>
<path d="M126.277 15.4368C126.181 15.5053 126.223 15.3721 126.339 15.1169C126.449 15.1929 126.435 15.3223 126.277 15.4368Z" fill="white"/>
<path d="M140.281 40.8454L138.568 41.5399C138.379 41.5536 138.19 41.566 138.002 41.5797C137.306 41.627 136.628 41.6681 135.965 41.7029C124.454 42.329 117.946 41.3022 114.308 39.7327H114.307C114.306 39.7315 114.303 39.7315 114.302 39.7315C113.659 39.4539 113.105 39.159 112.63 38.854C112.627 38.8528 112.625 38.8516 112.624 38.8503C111.596 38.1882 110.934 37.4775 110.516 36.7768C110.101 36.0823 109.928 35.399 109.88 34.7892C109.851 34.4419 109.864 34.1183 109.896 33.8296C109.91 33.6977 109.927 33.5732 109.947 33.4575C112.15 32.6759 116.111 33.1612 120.506 34.1992C124.948 35.2484 129.834 36.8652 133.792 38.3089C134.051 38.4047 134.307 38.4981 134.557 38.5914C136.025 39.1353 137.342 39.6469 138.434 40.085C139.156 40.3749 139.779 40.6326 140.281 40.8454Z" fill="#D39700"/>
<path d="M140.446 39.3293C141.773 40.2117 135.025 31.0975 132.702 29.2854C130.379 27.4732 128.428 30.174 129.1 31.2456C129.774 32.3172 129.451 32.0185 140.446 39.3293Z" fill="#D39700"/>
<path d="M142.207 41.5883L145.397 42.5416L147.167 43.0693C169.468 42.5279 174.295 37.9179 174.997 34.6434C175.198 33.7137 175.064 32.8922 174.905 32.2998C174.873 32.1841 174.842 32.077 174.811 31.9812C174.067 29.6389 167.43 18.2956 163.181 14.7273C160.92 12.828 157.777 15.3496 154.915 19.1207C152.398 22.4351 150.102 26.714 148.813 29.8044C146.06 36.4107 142.207 41.5883 142.207 41.5883Z" fill="#FFC000"/>
<path d="M164.785 33.9354C164.523 35.8073 164.072 37.0954 164.072 37.1776C164.072 37.1776 170.643 35.6479 174.997 34.6448C175.002 34.6236 175.006 34.605 175.01 34.5851C175.015 34.5564 175.021 34.5291 175.026 34.5017C175.036 34.4457 175.046 34.3897 175.052 34.3361C175.059 34.2888 175.066 34.2403 175.071 34.193C175.076 34.1582 175.078 34.1233 175.081 34.0885C175.112 33.7437 175.099 33.4189 175.066 33.1214C175.051 32.9982 175.033 32.8812 175.013 32.7692C175.003 32.7132 174.991 32.6584 174.981 32.6049C174.957 32.4979 174.932 32.3971 174.906 32.3012C174.875 32.1855 174.844 32.0784 174.812 31.9826C174.068 29.6403 167.432 18.297 163.183 14.7287C162.209 13.9098 161.07 13.9135 159.862 14.4835C159.277 14.7598 158.674 15.1681 158.067 15.6783C157.017 16.5657 155.949 17.763 154.917 19.1222C164.972 21.7607 165.409 29.4909 164.785 33.9354Z" fill="#FFD45C"/>
<path d="M159.861 14.4822C159.276 14.7585 158.674 15.1667 158.066 15.677C158.74 15.9334 159.673 16.5071 160.825 17.641C163.802 20.5658 168.176 27.9587 168.205 32.911C168.206 32.972 168.206 33.0329 168.205 33.0927C168.125 38.0449 171.631 33.1026 171.631 33.1026C171.631 32.9595 171.553 32.6683 171.406 32.2576C170.295 29.1622 165.211 19.2478 159.861 14.4822Z" fill="white"/>
<path d="M156.968 15.9147C157.07 15.9732 157.015 15.845 156.876 15.6023C156.773 15.6882 156.8 15.8164 156.968 15.9147Z" fill="white"/>
<path d="M174.65 35.6591C174.114 36.7879 173.004 38.0002 170.871 39.1128C170.87 39.1141 170.87 39.1141 170.869 39.1141C167.289 40.9797 160.825 42.5641 149.341 43.0022C148.805 43.0221 148.258 43.0408 147.698 43.0557C147.599 43.0594 147.501 43.0607 147.402 43.0644C147.325 43.0669 147.246 43.0682 147.168 43.0706L145.398 42.5429C145.871 42.2853 146.458 41.9754 147.139 41.6219C151.085 39.5833 158.184 36.1756 164.465 34.0423C168.742 32.5911 172.641 31.7311 174.906 32.2999C174.92 32.3472 174.932 32.397 174.943 32.448C175.139 33.2458 175.25 34.4008 174.65 35.6591Z" fill="#D39700"/>
<path d="M138.001 41.5796C137.305 41.6269 136.627 41.668 135.965 41.7028C124.453 42.3288 117.946 41.302 114.308 39.7326C114.606 39.8073 127.157 42.8976 132.88 39.6181C132.894 39.6106 132.907 39.6032 132.919 39.5957C134.392 40.2715 137.537 41.612 138.001 41.5796Z" fill="#382729"/>
<path d="M140.281 40.8454L138.569 41.5399C138.379 41.5536 138.191 41.566 138.003 41.5797C137.307 41.627 136.628 41.6681 135.966 41.7029C125.777 35.2484 113.026 33.7624 109.896 33.8296C109.91 33.6977 109.928 33.5732 109.948 33.4575C112.15 32.6759 116.111 33.1612 120.506 34.1992C126.943 35.7201 134.308 38.4296 138.433 40.085C139.156 40.3749 139.78 40.6326 140.281 40.8454Z" fill="white"/>
<path d="M170.869 39.1152C167.29 40.9809 160.826 42.5653 149.342 43.0034C148.805 43.0233 148.258 43.0419 147.698 43.0569C147.599 43.0606 147.501 43.0619 147.402 43.0656C147.927 42.4259 148.989 41.526 148.989 41.526C149.564 41.5932 159.578 43.8721 170.869 39.1152Z" fill="#382729"/>
<path d="M145.091 41.0494C143.853 42.0538 149.72 32.3384 151.863 30.3135C154.007 28.2885 156.201 30.7914 155.631 31.9228C155.061 33.0528 155.355 32.7243 145.091 41.0494Z" fill="#D39700"/>
<path d="M174.943 32.4492C164.667 34.0659 153.084 40.335 149.342 43.0034C148.805 43.0233 148.258 43.042 147.698 43.0569L147.139 41.6232C151.085 39.5845 158.184 36.1768 164.465 34.0435C168.742 32.5923 172.641 31.7323 174.906 32.3011C174.92 32.3484 174.932 32.3982 174.943 32.4492Z" fill="white"/>
<path d="M148.012 42.3749C147.934 44.0004 147.381 45.5263 145.532 45.9544C141.73 46.8331 137.401 46.9949 137.637 44.6165C137.647 44.5132 137.647 44.4136 137.638 44.3153C137.529 43.1018 136.144 42.1808 137.88 40.1334C139.058 38.7457 139.627 38.7955 140.427 38.8726C140.703 38.8988 141.006 38.9286 141.37 38.9025C141.632 38.8838 141.927 38.8378 142.266 38.7395C142.875 38.5652 143.56 38.32 144.233 38.091C145.665 37.6019 147.039 37.18 147.485 37.6467C147.578 37.745 147.632 37.8844 147.634 38.0686C147.647 38.8303 148.096 40.6586 148.012 42.3749Z" fill="#FFD45C"/>
<path d="M140.883 43.8534C140.721 46.0215 140.426 38.8726 140.426 38.8726C140.701 38.8987 141.004 38.9286 141.369 38.9024C141.749 40.8328 140.967 42.752 140.883 43.8534Z" fill="#FFC000"/>
<path d="M147.483 37.6479C147.012 43.902 142.036 45.3806 142.763 44.2978C143.289 43.5125 143.892 40.1944 144.232 38.0922C145.664 37.6031 147.038 37.1812 147.483 37.6479Z" fill="#FFC000"/>
<path d="M148.012 42.375C147.934 44.0004 147.381 45.5263 145.532 45.9545C141.73 46.8332 137.401 46.995 137.637 44.6165C137.647 44.5132 137.647 44.4137 137.638 44.3153C139.593 45.4442 143.753 46.8941 148.012 42.375Z" fill="#FFC000"/>
<path d="M139.918 40.9512C139.982 41.6021 139.817 42.151 139.553 42.1771C139.288 42.2032 139.021 41.6967 138.959 41.0457C138.897 40.3948 139.06 39.846 139.324 39.8198C139.589 39.7937 139.856 40.3002 139.918 40.9512Z" fill="white"/>
<path d="M194.421 53.4284C194.56 52.4464 195.977 48.5134 201.731 47.3684L204.74 51.3399C204.74 51.3399 200.38 51.0823 197.421 54.444C197.422 54.444 194.379 53.737 194.421 53.4284Z" fill="#FFD45C"/>
<path d="M94.4638 28.1754C94.3254 27.1934 92.9086 23.2605 87.1542 22.1155L84.1448 26.087C84.1448 26.087 88.5049 25.8294 91.4644 29.191C91.4631 29.191 94.5074 28.4841 94.4638 28.1754Z" fill="#FFD45C"/>
<path d="M121.596 102.458C120.624 102.25 116.436 102.225 113.379 107.222L116.081 111.409C116.081 111.409 117.338 107.235 121.52 105.619C121.518 105.619 121.9 102.523 121.596 102.458Z" fill="#FFD45C"/>
<path d="M181.538 19.6647C181.538 19.6647 184.039 15.6546 186.845 15.1169L188.714 17.3908L181.538 19.6647Z" fill="#FFD45C"/>
<path d="M134.499 131.279C134.499 131.279 137.678 134.779 137.426 137.619L134.722 138.789L134.499 131.279Z" fill="#FFD45C"/>
<path d="M210.785 63.2645C210.785 63.2645 215.465 62.5538 217.698 64.3324L217.182 67.2273L210.785 63.2645Z" fill="#E83E21"/>
<path d="M152.752 110.253C152.752 110.253 156.837 112.64 157.45 115.424L155.223 117.35L152.752 110.253Z" fill="#E83E21"/>
<path d="M134.998 5.57219C134.113 5.32825 138.098 3.45264 138.098 3.45264C138.098 3.45264 141.184 7.35321 141.002 9.21638C141.002 9.21762 136.537 5.99535 134.998 5.57219Z" fill="#FFD45C"/>
<path d="M71.5186 51.1868C70.708 51.6162 72.3118 47.5215 72.3118 47.5215C72.3118 47.5215 77.2393 48.2396 78.3905 49.7182C78.3905 49.7182 72.9279 50.4401 71.5186 51.1868Z" fill="#E83E21"/>
<path d="M188.613 39.3916C188.476 39.3916 188.339 39.3543 188.214 39.2759C187.865 39.0556 187.76 38.5938 187.981 38.2454C188.144 37.9865 191.707 32.4269 195.744 31.1959C196.477 30.1194 197.621 28.9781 199.175 27.7783C204.914 23.3475 208.65 24.9107 210.366 26.2362C210.576 26.398 210.775 26.571 210.962 26.7527C212.193 26.4092 213.58 26.3793 215.011 26.6955C215.415 26.7838 215.669 27.1834 215.581 27.5854C215.492 27.9886 215.092 28.2425 214.689 28.1541C213.758 27.9488 212.856 27.9177 212.029 28.0484C213.277 29.9625 213.59 32.2825 212.972 33.72C212.461 34.9061 211.406 35.4699 210.077 35.2683C208.448 35.0194 207.298 34.1904 206.838 32.9334C206.347 31.5892 206.748 29.9489 207.886 28.652C208.327 28.1492 208.845 27.7285 209.422 27.3962C207.051 25.5903 203.74 26.1454 200.093 28.9606C199.188 29.6601 198.431 30.3421 197.837 30.9893C199.042 31.135 200.128 31.7635 201.076 32.8674C202.387 34.3946 202.265 35.4724 201.932 36.1071C201.432 37.0605 200.152 37.5534 198.592 37.3941C197.191 37.2509 195.384 36.4805 194.898 34.7791C194.755 34.2838 194.737 33.7685 194.839 33.2334C192.405 34.6684 190.102 37.6965 189.249 39.0444C189.105 39.2684 188.861 39.3916 188.613 39.3916ZM196.71 32.4978C196.317 33.2072 196.185 33.842 196.334 34.3672C196.598 35.2869 197.734 35.8035 198.743 35.9068C199.73 36.0076 200.439 35.7275 200.605 35.4126C200.768 35.1015 200.519 34.5128 199.939 33.837C199.074 32.8301 198.128 32.3796 197.044 32.4567C196.933 32.4667 196.821 32.4791 196.71 32.4978ZM210.518 28.5064C209.937 28.7814 209.427 29.1598 209.011 29.634C208.232 30.5214 207.938 31.588 208.242 32.4194C208.51 33.1525 209.223 33.6266 210.301 33.7909C210.947 33.8893 211.359 33.6802 211.595 33.1313C212.074 32.0174 211.671 30.031 210.518 28.5064Z" fill="#E83E21"/>
<path d="M145.397 16.5122C145.091 16.5122 144.804 16.3242 144.693 16.0206C144.552 15.6335 144.752 15.2041 145.14 15.0635C147.38 14.2483 151.064 12.3739 151.413 10.8107C151.44 10.6875 151.457 10.5257 151.39 10.3265C150.552 10.975 149.558 11.2475 148.605 11.0048C146.894 10.5705 146.619 9.57229 146.58 9.16282C146.512 8.43722 146.954 7.739 147.71 7.38553C148.577 6.97979 149.939 6.99472 151.368 8.08002C151.494 7.85599 151.604 7.61329 151.692 7.35441C152.347 5.45142 151.851 2.89626 148.491 1.42887C148.112 1.26334 147.94 0.822755 148.105 0.445641C148.271 0.0672824 148.713 -0.104472 149.091 0.0610594C153.386 1.93792 153.94 5.42404 153.108 7.83981C152.941 8.3252 152.72 8.76952 152.459 9.16282C152.984 9.91705 152.986 10.6327 152.873 11.1355C152.232 13.9993 146.323 16.2222 145.652 16.4661C145.569 16.4972 145.481 16.5122 145.397 16.5122ZM148.869 8.63386C148.663 8.63386 148.487 8.67369 148.345 8.73965C148.145 8.833 148.064 8.96119 148.07 9.02342C148.078 9.10432 148.261 9.37689 148.976 9.5586C149.435 9.67559 149.932 9.53869 150.388 9.21509C149.807 8.79317 149.28 8.63386 148.869 8.63386Z" fill="#E83E21"/>
<path d="M105.099 22.4876C105.072 22.4876 105.045 22.4864 105.017 22.4826C104.607 22.4378 104.31 22.0694 104.355 21.6587C104.75 18.0518 104.729 11.8712 102.988 10.6427C102.795 10.5071 102.493 10.3652 101.96 10.4984C102.354 12.0018 102.162 13.5601 101.301 14.7512C99.9774 16.5782 98.8262 16.5894 98.2588 16.4339C97.5067 16.2285 96.9867 15.5191 96.9019 14.5831C96.7772 13.2116 97.5529 11.1879 100.061 9.72797C99.7504 9.17039 99.3251 8.64641 98.7963 8.20458C96.3668 6.17214 93.0993 6.83178 90.0525 9.96817C89.7644 10.2644 89.2917 10.2719 88.9949 9.98435C88.6981 9.69685 88.6906 9.22515 88.9787 8.92893C93.2801 4.4994 97.3671 5.05947 99.7579 7.06079C100.458 7.647 101.014 8.3477 101.414 9.10318C102.544 8.7634 103.35 9.06957 103.852 9.42428C105.214 10.3864 105.93 12.7312 106.039 16.5944C106.115 19.2989 105.853 21.7197 105.842 21.8217C105.8 22.2038 105.476 22.4876 105.099 22.4876ZM100.592 11.1568C98.9759 12.1885 98.3087 13.5302 98.3922 14.4475C98.4184 14.7337 98.5257 14.9578 98.6541 14.9926C98.8637 15.0511 99.4174 14.7997 100.087 13.875C100.636 13.1207 100.787 12.1425 100.592 11.1568Z" fill="#E83E21"/>
</g>
<defs>
<linearGradient id="paint0_linear_2332_16915" x1="54.8198" y1="224.437" x2="55.6016" y2="224.923" gradientUnits="userSpaceOnUse">
<stop stop-color="#742D10"/>
<stop offset="1"/>
</linearGradient>
<linearGradient id="paint1_linear_2332_16915" x1="59.4124" y1="222.197" x2="59.456" y2="222.224" gradientUnits="userSpaceOnUse">
<stop stop-color="#742D10"/>
<stop offset="1"/>
</linearGradient>
<linearGradient id="paint2_linear_2332_16915" x1="189.943" y1="256.552" x2="178.268" y2="77.1051" gradientUnits="userSpaceOnUse">
<stop offset="0.393" stop-color="#E27949"/>
<stop offset="1" stop-color="#AE451D"/>
</linearGradient>
<linearGradient id="paint3_linear_2332_16915" x1="173.275" y1="117.109" x2="205.877" y2="159.79" gradientUnits="userSpaceOnUse">
<stop offset="0.1693" stop-color="#E27949"/>
<stop offset="0.8196" stop-color="#FFAE88"/>
</linearGradient>
<linearGradient id="paint4_linear_2332_16915" x1="184.152" y1="110.353" x2="180.469" y2="148.1" gradientUnits="userSpaceOnUse">
<stop stop-color="#E27949"/>
<stop offset="1" stop-color="#FCC28D"/>
</linearGradient>
<linearGradient id="paint5_linear_2332_16915" x1="171.982" y1="72.2439" x2="166.11" y2="123.519" gradientUnits="userSpaceOnUse">
<stop stop-color="#E27949"/>
<stop offset="1" stop-color="#FCC28D"/>
</linearGradient>
<linearGradient id="paint6_linear_2332_16915" x1="171.035" y1="111.839" x2="219.916" y2="247.677" gradientUnits="userSpaceOnUse">
<stop offset="0.1693" stop-color="#E27949"/>
<stop offset="0.8196" stop-color="#FFAE88"/>
</linearGradient>
<linearGradient id="paint7_linear_2332_16915" x1="180.597" y1="98.9366" x2="176.447" y2="141.475" gradientUnits="userSpaceOnUse">
<stop stop-color="#E27949"/>
<stop offset="1" stop-color="#FCC28D"/>
</linearGradient>
<linearGradient id="paint8_linear_2332_16915" x1="79.5737" y1="165.539" x2="-43.6425" y2="177.836" gradientUnits="userSpaceOnUse">
<stop stop-color="#742D10"/>
<stop offset="1"/>
</linearGradient>
<linearGradient id="paint9_linear_2332_16915" x1="46.9508" y1="235.68" x2="96.0097" y2="62.6509" gradientUnits="userSpaceOnUse">
<stop offset="0.393" stop-color="#E27949"/>
<stop offset="1" stop-color="#AE451D"/>
</linearGradient>
<linearGradient id="paint10_linear_2332_16915" x1="70.651" y1="93.1074" x2="135.083" y2="177.46" gradientUnits="userSpaceOnUse">
<stop offset="0.1693" stop-color="#E27949"/>
<stop offset="0.8196" stop-color="#FFAE88"/>
</linearGradient>
<linearGradient id="paint11_linear_2332_16915" x1="83.398" y1="93.9611" x2="79.0824" y2="131.642" gradientUnits="userSpaceOnUse">
<stop stop-color="#E27949"/>
<stop offset="1" stop-color="#FCC28D"/>
</linearGradient>
<linearGradient id="paint12_linear_2332_16915" x1="55.1451" y1="40.6586" x2="89.1419" y2="136.848" gradientUnits="userSpaceOnUse">
<stop offset="0.393" stop-color="#E27949"/>
<stop offset="1" stop-color="#AE451D"/>
</linearGradient>
<linearGradient id="paint13_linear_2332_16915" x1="68.6829" y1="40.0508" x2="81.8699" y2="170.877" gradientUnits="userSpaceOnUse">
<stop offset="0.1693" stop-color="#E27949"/>
<stop offset="0.8196" stop-color="#FFAE88"/>
</linearGradient>
<linearGradient id="paint14_linear_2332_16915" x1="-49.5923" y1="205.342" x2="125.627" y2="50.0694" gradientUnits="userSpaceOnUse">
<stop offset="0.393" stop-color="#E27949"/>
<stop offset="1" stop-color="#AE451D"/>
</linearGradient>
<linearGradient id="paint15_linear_2332_16915" x1="103.911" y1="66.1156" x2="98.6384" y2="112.149" gradientUnits="userSpaceOnUse">
<stop stop-color="#E27949"/>
<stop offset="1" stop-color="#FCC28D"/>
</linearGradient>
<linearGradient id="paint16_linear_2332_16915" x1="95.9078" y1="98.1649" x2="19.5818" y2="220.759" gradientUnits="userSpaceOnUse">
<stop offset="0.1693" stop-color="#E27949"/>
<stop offset="0.8196" stop-color="#FFAE88"/>
</linearGradient>
<linearGradient id="paint17_linear_2332_16915" x1="119.271" y1="143.104" x2="48.4475" y2="136.456" gradientUnits="userSpaceOnUse">
<stop offset="0.1693" stop-color="#E27949"/>
<stop offset="0.8196" stop-color="#FFAE88"/>
</linearGradient>
<linearGradient id="paint18_linear_2332_16915" x1="112.123" y1="87.3293" x2="42.9134" y2="113.538" gradientUnits="userSpaceOnUse">
<stop offset="0.2416" stop-color="#E27949"/>
<stop offset="0.8196" stop-color="#FFAE88"/>
</linearGradient>
<linearGradient id="paint19_linear_2332_16915" x1="127.433" y1="15.4763" x2="93.3713" y2="79.2121" gradientUnits="userSpaceOnUse">
<stop stop-color="#E27949"/>
<stop offset="1" stop-color="#FCC28D"/>
</linearGradient>
<linearGradient id="paint20_linear_2332_16915" x1="101.873" y1="57.156" x2="70.8835" y2="123.912" gradientUnits="userSpaceOnUse">
<stop offset="0.2287" stop-color="#F2D9CA"/>
<stop offset="0.8196" stop-color="#EFC8B4"/>
</linearGradient>
<linearGradient id="paint21_linear_2332_16915" x1="89.2775" y1="83.5449" x2="84.414" y2="126.009" gradientUnits="userSpaceOnUse">
<stop stop-color="#E27949"/>
<stop offset="1" stop-color="#FCC28D"/>
</linearGradient>
<linearGradient id="paint22_linear_2332_16915" x1="113.765" y1="30.0472" x2="33.4315" y2="138.413" gradientUnits="userSpaceOnUse">
<stop offset="0.393" stop-color="#E27949"/>
<stop offset="1" stop-color="#AE451D"/>
</linearGradient>
<linearGradient id="paint23_linear_2332_16915" x1="67.1898" y1="201.953" x2="45.3315" y2="68.9431" gradientUnits="userSpaceOnUse">
<stop offset="0.393" stop-color="#E27949"/>
<stop offset="1" stop-color="#AE451D"/>
</linearGradient>
<linearGradient id="paint24_linear_2332_16915" x1="-126.009" y1="119.369" x2="177.966" y2="209.598" gradientUnits="userSpaceOnUse">
<stop offset="0.1693" stop-color="#E27949"/>
<stop offset="0.8196" stop-color="#FFAE88"/>
</linearGradient>
<linearGradient id="paint25_linear_2332_16915" x1="-124.366" y1="31.8408" x2="266.058" y2="263.25" gradientUnits="userSpaceOnUse">
<stop offset="0.2287" stop-color="#FFAF87"/>
<stop offset="0.8196" stop-color="#EFC8B4"/>
</linearGradient>
<linearGradient id="paint26_linear_2332_16915" x1="-131.947" y1="77.6529" x2="237.102" y2="296.393" gradientUnits="userSpaceOnUse">
<stop offset="0.2287" stop-color="#FFAF87"/>
<stop offset="0.8196" stop-color="#EFC8B4"/>
</linearGradient>
<linearGradient id="paint27_linear_2332_16915" x1="170.205" y1="171.863" x2="288.052" y2="209.813" gradientUnits="userSpaceOnUse">
<stop stop-color="#742D10"/>
<stop offset="1"/>
</linearGradient>
<linearGradient id="paint28_linear_2332_16915" x1="233.22" y1="47.6009" x2="164.729" y2="159.019" gradientUnits="userSpaceOnUse">
<stop offset="0.393" stop-color="#E27949"/>
<stop offset="1" stop-color="#AE451D"/>
</linearGradient>
<linearGradient id="paint29_linear_2332_16915" x1="196.66" y1="14.8667" x2="217.398" y2="220.601" gradientUnits="userSpaceOnUse">
<stop offset="0.1693" stop-color="#E27949"/>
<stop offset="0.8196" stop-color="#FFAE88"/>
</linearGradient>
<linearGradient id="paint30_linear_2332_16915" x1="183.535" y1="154.936" x2="241.197" y2="68.1234" gradientUnits="userSpaceOnUse">
<stop offset="0.1693" stop-color="#E27949"/>
<stop offset="0.8196" stop-color="#FFAE88"/>
</linearGradient>
<linearGradient id="paint31_linear_2332_16915" x1="290.735" y1="247.136" x2="152.082" y2="58.5939" gradientUnits="userSpaceOnUse">
<stop offset="0.393" stop-color="#E27949"/>
<stop offset="1" stop-color="#AE451D"/>
</linearGradient>
<linearGradient id="paint32_linear_2332_16915" x1="260.857" y1="156.395" x2="206.05" y2="158.92" gradientUnits="userSpaceOnUse">
<stop offset="0.1693" stop-color="#E27949"/>
<stop offset="0.8196" stop-color="#FFAE88"/>
</linearGradient>
<linearGradient id="paint33_linear_2332_16915" x1="157.462" y1="97.8449" x2="219.588" y2="138.014" gradientUnits="userSpaceOnUse">
<stop offset="0.2416" stop-color="#E27949"/>
<stop offset="0.8196" stop-color="#FFAE88"/>
</linearGradient>
<linearGradient id="paint34_linear_2332_16915" x1="157.625" y1="24.3854" x2="177.548" y2="93.8288" gradientUnits="userSpaceOnUse">
<stop stop-color="#E27949"/>
<stop offset="1" stop-color="#FCC28D"/>
</linearGradient>
<linearGradient id="paint35_linear_2332_16915" x1="173.836" y1="70.4918" x2="190.128" y2="142.25" gradientUnits="userSpaceOnUse">
<stop offset="0.2287" stop-color="#F2D9CA"/>
<stop offset="0.8196" stop-color="#EFC8B4"/>
</linearGradient>
<linearGradient id="paint36_linear_2332_16915" x1="175.877" y1="106.375" x2="271.469" y2="54.0656" gradientUnits="userSpaceOnUse">
<stop offset="0.1693" stop-color="#E27949"/>
<stop offset="0.8196" stop-color="#FFAE88"/>
</linearGradient>
<linearGradient id="paint37_linear_2332_16915" x1="208.328" y1="30.3639" x2="206.876" y2="165.139" gradientUnits="userSpaceOnUse">
<stop offset="0.393" stop-color="#E27949"/>
<stop offset="1" stop-color="#AE451D"/>
</linearGradient>
<linearGradient id="paint38_linear_2332_16915" x1="158.929" y1="28.074" x2="235.377" y2="139.202" gradientUnits="userSpaceOnUse">
<stop offset="0.393" stop-color="#E27949"/>
<stop offset="1" stop-color="#AE451D"/>
</linearGradient>
<linearGradient id="paint39_linear_2332_16915" x1="177.26" y1="219.326" x2="226.541" y2="93.841" gradientUnits="userSpaceOnUse">
<stop offset="0.393" stop-color="#E27949"/>
<stop offset="1" stop-color="#AE451D"/>
</linearGradient>
<linearGradient id="paint40_linear_2332_16915" x1="383.55" y1="179.104" x2="67.3157" y2="203.321" gradientUnits="userSpaceOnUse">
<stop offset="0.1693" stop-color="#E27949"/>
<stop offset="0.8196" stop-color="#FFAE88"/>
</linearGradient>
<linearGradient id="paint41_linear_2332_16915" x1="366.56" y1="-6.76455" x2="119.868" y2="442.917" gradientUnits="userSpaceOnUse">
<stop offset="0.2287" stop-color="#FFAF87"/>
<stop offset="0.8196" stop-color="#EFC8B4"/>
</linearGradient>
<linearGradient id="paint42_linear_2332_16915" x1="204.896" y1="81.6422" x2="200.493" y2="76.5804" gradientUnits="userSpaceOnUse">
<stop stop-color="#E27949"/>
<stop offset="1" stop-color="#FCC28D"/>
</linearGradient>
<clipPath id="clip0_2332_16915">
<rect width="262" height="225" fill="white"/>
</clipPath>
</defs>
</svg>
