<svg width="76" height="24" viewBox="0 0 76 24" fill="none" xmlns="http://www.w3.org/2000/svg">
<g clip-path="url(#clip0_134_23098)">
<path d="M31.0586 6.25816H32.7802V14.5361H35.7478V16.1701H31.0658L31.0586 6.25816ZM39.7348 8.74153C40.1847 8.7359 40.6298 8.83434 41.0353 9.02914C41.4408 9.22394 41.7957 9.50983 42.0723 9.86446V8.88907H43.6784V16.1846H42.0723V15.209C41.7957 15.5637 41.4407 15.8496 41.0352 16.0444C40.6296 16.2392 40.1845 16.3376 39.7346 16.3319C37.7321 16.3319 36.2124 14.6224 36.2124 12.535C36.2124 10.4474 37.7323 8.74153 39.7348 8.74153ZM40.0265 10.2027C38.7263 10.2027 37.8655 11.2249 37.8655 12.535C37.8655 13.8451 38.7406 14.8708 40.0265 14.8708C41.3123 14.8708 42.1876 13.8486 42.1876 12.535C42.1876 11.2212 41.3265 10.2027 40.0265 10.2027ZM44.9282 14.9176L48.7566 10.3469H44.9856V8.88907H50.8309V10.174L47.0172 14.727H50.9174V16.1846H44.9282V14.9176ZM55.0017 8.74153C55.4515 8.7359 55.8966 8.83434 56.3021 9.02914C56.7076 9.22395 57.0625 9.50983 57.339 9.86446V8.88907H58.9453V16.1846H57.339V15.209C57.0625 15.5636 56.7076 15.8495 56.3021 16.0443C55.8966 16.2391 55.4515 16.3376 55.0017 16.3319C52.9992 16.3319 51.4828 14.6224 51.4828 12.535C51.4828 10.4474 52.9994 8.74153 55.0017 8.74153ZM55.2934 10.2027C53.993 10.2027 53.1324 11.2249 53.1324 12.535C53.1324 13.8451 54.0077 14.8708 55.2934 14.8708C56.5792 14.8708 57.4543 13.8486 57.4543 12.535C57.4543 11.2212 56.5936 10.2027 55.2934 10.2027ZM63.5337 8.74153C63.9831 8.73565 64.4278 8.834 64.8327 9.02884C65.2377 9.22368 65.5919 9.50971 65.8676 9.86446V5.67171H67.4736V16.1846H65.8676V15.2094C65.5919 15.5641 65.2377 15.8502 64.8327 16.045C64.4278 16.2398 63.9831 16.3382 63.5337 16.3323C61.5312 16.3323 60.0113 14.6227 60.0113 12.5353C60.0113 10.4478 61.5312 8.74153 63.5337 8.74153ZM63.8253 10.203C62.5251 10.203 61.6644 11.2253 61.6644 12.5353C61.6644 13.8454 62.5432 14.8712 63.8253 14.8712C65.1077 14.8712 65.9863 13.8489 65.9863 12.5353C65.9863 11.2216 65.1255 10.203 63.8253 10.203ZM72.0621 8.74153C72.5115 8.73562 72.9561 8.83396 73.3611 9.0288C73.7661 9.22365 74.1203 9.50969 74.3959 9.86446V8.88907H75.9986V16.1846H74.3889V15.209C74.1132 15.5638 73.7589 15.8498 73.354 16.0447C72.949 16.2395 72.5043 16.3378 72.0548 16.3319C70.0524 16.3319 68.5327 14.6224 68.5327 12.535C68.5327 10.4474 70.0596 8.74153 72.0621 8.74153ZM72.354 10.2027C71.0536 10.2027 70.1928 11.2249 70.1928 12.535C70.1928 13.8451 71.0716 14.8708 72.354 14.8708C73.6359 14.8708 74.5149 13.8486 74.5149 12.535C74.5149 11.2212 73.6539 10.2027 72.354 10.2027Z" fill="#000083"/>
<path d="M12.269 23.3764C12.0947 23.3775 11.9233 23.3328 11.7718 23.2473C10.4743 22.4969 0.864566 16.4756 0.501682 16.292C0.365819 16.2287 0.248619 16.1314 0.161444 16.0096C0.0742697 15.8877 0.0200789 15.7454 0.00412625 15.5965V7.15061C0.000722842 6.99555 0.036857 6.84217 0.109128 6.70492C0.181398 6.56766 0.287429 6.45104 0.417239 6.36603L0.486395 6.32639C1.41635 5.74987 4.52835 3.85191 5.02081 3.57874C5.1337 3.51179 5.26226 3.47578 5.39352 3.47435C5.51655 3.4758 5.63739 3.50636 5.74658 3.56383C5.74658 3.56383 10.1012 6.40059 10.7676 6.65375C11.235 6.86826 11.7446 6.97516 12.2588 6.96656C12.8418 6.97879 13.4177 6.83834 13.9295 6.55918C14.5803 6.2169 18.7416 3.57911 18.786 3.57911C18.8909 3.51582 19.0117 3.48308 19.134 3.48453C19.2654 3.48526 19.3942 3.52127 19.5067 3.58893C20.0734 3.90174 23.9312 6.26164 24.0953 6.36603C24.2287 6.44644 24.3387 6.56025 24.4146 6.69619C24.4904 6.83214 24.5294 6.98552 24.5278 7.14115V15.5867C24.5128 15.7358 24.4591 15.8785 24.3719 16.0005C24.2848 16.1225 24.1672 16.2196 24.0309 16.2821C23.668 16.4807 14.0882 22.502 12.7659 23.2375C12.6153 23.3267 12.4441 23.3746 12.269 23.3764Z" fill="url(#paint0_linear_134_23098)"/>
<path d="M12.2188 23.3764H12.2686C12.4426 23.3775 12.6144 23.3328 12.7654 23.2473C14.063 22.4969 23.668 16.4756 24.0305 16.292C24.1669 16.2294 24.2845 16.1324 24.3717 16.0104C24.459 15.8884 24.5127 15.7457 24.5277 15.5965V7.15061C24.5293 7.00772 24.497 6.86648 24.4334 6.73849L12.2188 13.4403V23.3764Z" fill="url(#paint1_linear_134_23098)"/>
<path d="M12.1758 23.2573H12.1264C11.9543 23.2584 11.7844 23.2141 11.6349 23.1296C10.3512 22.3872 0.848504 16.4301 0.489845 16.2483C0.354923 16.1865 0.238541 16.0905 0.15225 15.9698C0.0659599 15.8491 0.0127649 15.7079 -0.00204849 15.5603V7.20437C-0.00366116 7.063 0.0283041 6.92327 0.091218 6.79665L12.1758 13.4271V23.2573Z" fill="url(#paint2_linear_134_23098)"/>
</g>
<defs>
<linearGradient id="paint0_linear_134_23098" x1="-0.0107968" y1="3.65622" x2="24.2879" y2="3.46792" gradientUnits="userSpaceOnUse">
<stop stop-color="#FFB900"/>
<stop offset="0.338" stop-color="#F38000"/>
<stop offset="0.567" stop-color="#F83C72"/>
<stop offset="0.78" stop-color="#FC1CBE"/>
<stop offset="0.93" stop-color="#FE08ED"/>
<stop offset="1" stop-color="#FF00FF"/>
</linearGradient>
<linearGradient id="paint1_linear_134_23098" x1="6.81516" y1="21.2995" x2="31.5811" y2="7.57782" gradientUnits="userSpaceOnUse">
<stop stop-color="#EE0A3F"/>
<stop offset="1" stop-color="#EE0A3F" stop-opacity="0"/>
</linearGradient>
<linearGradient id="paint2_linear_134_23098" x1="9.22549" y1="17.7274" x2="-2.73936" y2="8.08255" gradientUnits="userSpaceOnUse">
<stop stop-color="#ED6600"/>
<stop offset="1" stop-color="#F98200"/>
</linearGradient>
<clipPath id="clip0_134_23098">
<rect width="76" height="24" fill="white"/>
</clipPath>
</defs>
</svg>
