<svg width="75" height="24" viewBox="0 0 75 24" fill="none" xmlns="http://www.w3.org/2000/svg">
<g clip-path="url(#clip0_134_23091)">
<path fill-rule="evenodd" clip-rule="evenodd" d="M13.6862 16.9389C13.5546 18.0259 12.8966 18.8964 11.8774 19.3323C11.3098 19.5752 10.5476 19.7062 9.94439 19.6651C9.00332 19.6291 8.11921 19.4 7.30426 18.9812C7.01312 18.8316 6.5791 18.5327 6.24584 18.2528C6.16143 18.182 6.15141 18.1367 6.20726 18.0574C6.23742 18.0119 6.29302 17.9298 6.41593 17.7495C6.59418 17.4881 6.61642 17.4553 6.63647 17.4247C6.6935 17.3371 6.78617 17.3294 6.87757 17.4014C6.88718 17.4089 6.88718 17.4089 6.89442 17.4146C6.90942 17.4262 6.90942 17.4262 6.9448 17.4537C6.9806 17.4816 7.00183 17.4981 7.01042 17.5046C7.88931 18.1936 8.91293 18.5909 9.94633 18.6307C11.3841 18.6111 12.418 17.964 12.6032 16.9704C12.8069 15.8769 11.9493 14.9324 10.2715 14.4059C9.74676 14.2412 8.42037 13.7098 8.17582 13.5662C7.02735 12.8918 6.4904 12.0083 6.56672 10.9171C6.68365 9.40453 8.08652 8.27639 9.85914 8.26884C10.6518 8.26722 11.4429 8.43211 12.2028 8.75263C12.4719 8.86614 12.9523 9.12782 13.1182 9.25178C13.2137 9.322 13.2326 9.40385 13.1778 9.49215C13.1473 9.54335 13.0967 9.62452 12.9901 9.79373L12.989 9.79559C12.8487 10.0185 12.8443 10.0254 12.8121 10.0776C12.7565 10.1623 12.6912 10.1702 12.5909 10.1065C11.7777 9.55972 10.8763 9.28463 9.88482 9.26476C8.65052 9.28922 7.72538 10.0245 7.66455 11.0261C7.64838 11.9308 8.32627 12.5913 9.79056 13.0948C12.7629 14.0509 13.9003 15.1717 13.6862 16.9389ZM10.0155 1.32155C11.9506 1.32155 13.5279 3.15966 13.6017 5.46059H6.42932C6.50312 3.15966 8.08046 1.32155 10.0155 1.32155ZM20.0303 5.89319C20.0303 5.65426 19.8381 5.46059 19.601 5.46059H14.952C14.838 2.42252 12.6715 0 10.0155 0C7.3596 0 5.19308 2.42252 5.07901 5.46059L0.423399 5.46068C0.189965 5.46493 0.00202222 5.65698 0.00202222 5.89319C0.00202222 5.90448 0.00244461 5.91569 0.0032854 5.92672H0L0.663656 20.5699C0.66374 20.6107 0.665255 20.6518 0.668289 20.6931C0.668964 20.7024 0.669722 20.7117 0.67048 20.7209L0.671913 20.7519L0.673512 20.7535C0.774349 21.7724 1.51315 22.5931 2.51773 22.631L2.52 22.6332H17.288C17.295 22.6333 17.302 22.6334 17.309 22.6334C17.316 22.6334 17.3229 22.6333 17.3299 22.6332H17.3614L17.362 22.6326C18.3841 22.6047 19.2121 21.7725 19.2995 20.741L19.3 20.7405L19.3007 20.7266C19.3015 20.7158 19.3023 20.705 19.303 20.6941C19.3046 20.6681 19.3057 20.6422 19.3061 20.6165L20.0302 5.91552H20.0297C20.0302 5.90813 20.0303 5.90066 20.0303 5.89319ZM69.2627 15.4368C69.5473 14.5078 70.4076 13.8885 71.4116 13.8885C72.3699 13.8885 73.2823 14.5399 73.5975 15.435L73.6191 15.4965H69.2444L69.2627 15.4368ZM74.5927 16.7827C74.5986 16.7829 74.5986 16.7829 74.6073 16.783C74.616 16.7829 74.616 16.7829 74.6248 16.7827C74.8342 16.7731 75.0001 16.5943 75.0001 16.3768C75.0001 16.3663 74.9997 16.3572 74.9989 16.3426C74.999 16.3399 74.999 16.3346 74.999 16.3175C74.999 14.2659 73.3922 12.6032 71.4103 12.6032C69.4285 12.6032 67.8217 14.2659 67.8217 16.3175C67.8217 16.4705 67.8305 16.623 67.8484 16.7746L67.8496 16.7827L67.8552 16.8227C67.9539 17.5609 68.2686 18.2384 68.7656 18.7867C68.7653 18.7864 68.7658 18.787 68.7683 18.7898C69.3194 19.3968 70.0676 19.8105 70.8974 19.9652L70.9082 19.9673V19.9662L70.9621 19.9752C70.9898 19.9799 71.0191 19.9846 71.0582 19.9906C72.1504 20.1221 73.1192 19.9645 73.9396 19.551C74.1416 19.4491 74.3232 19.3367 74.4806 19.218C74.5312 19.1797 74.5768 19.1427 74.6162 19.1081C74.6365 19.0902 74.6527 19.0752 74.6612 19.0665C74.8463 18.8757 74.8579 18.808 74.7462 18.6337C74.6233 18.4379 74.5148 18.271 74.4218 18.1329C74.3894 18.0845 74.3611 18.0433 74.3372 18.0091C74.3241 17.9903 74.3241 17.9903 74.3157 17.9784C74.3126 17.9738 74.3126 17.9738 74.3103 17.9709L74.3091 17.9694C74.2079 17.8434 74.1387 17.8318 74.0265 17.931C74.0145 17.9416 73.9745 17.9726 73.9673 17.9802C73.1781 18.6817 72.1004 18.9074 71.0242 18.6819C70.8238 18.6281 70.6363 18.5597 70.4637 18.4771C69.7894 18.1387 69.3117 17.5357 69.1738 16.8378L69.163 16.7827L74.5927 16.7827ZM60.7232 15.4368C61.0077 14.5078 61.8681 13.8885 62.872 13.8885C63.8303 13.8885 64.7427 14.5399 65.058 15.435L65.0795 15.4965H60.7048L60.7232 15.4368ZM66.0531 16.7827C66.0591 16.7829 66.0591 16.7829 66.0678 16.783C66.0764 16.7829 66.0764 16.7829 66.0852 16.7827C66.2946 16.7731 66.4604 16.5943 66.4604 16.3768C66.4604 16.3663 66.4601 16.3572 66.4593 16.3426C66.4594 16.3399 66.4594 16.3346 66.4594 16.3175C66.4594 14.2659 64.8526 12.6032 62.8707 12.6032C60.8891 12.6032 59.2821 14.2659 59.2821 16.3175C59.2821 16.4705 59.2911 16.623 59.3089 16.7746L59.3101 16.7827L59.3156 16.8227C59.4143 17.5609 59.729 18.2384 60.226 18.7867C60.2258 18.7864 60.2263 18.787 60.2288 18.7898C60.7798 19.3968 61.528 19.8105 62.3578 19.9652L62.3687 19.9673V19.9662L62.4226 19.9752C62.4503 19.9799 62.4795 19.9846 62.5187 19.9906C63.6109 20.1221 64.5797 19.9645 65.4 19.551C65.602 19.4491 65.7836 19.3367 65.941 19.218C65.9916 19.1797 66.0372 19.1427 66.0766 19.1081C66.0969 19.0902 66.1131 19.0752 66.1216 19.0665C66.3067 18.8757 66.3183 18.808 66.2066 18.6337C66.0837 18.4379 65.9752 18.271 65.8822 18.1329C65.8498 18.0845 65.8214 18.0433 65.7977 18.0091C65.7845 17.9903 65.7845 17.9903 65.7761 17.9784C65.773 17.9738 65.773 17.9738 65.7707 17.9709L65.7699 17.9694C65.6686 17.8434 65.5994 17.8318 65.4872 17.931C65.4752 17.9416 65.4352 17.9726 65.428 17.9802C64.6389 18.6817 63.5611 18.9074 62.4849 18.6819C62.2845 18.6281 62.0971 18.5597 61.9244 18.4771C61.2502 18.1387 60.7725 17.5357 60.6347 16.8378L60.6238 16.7827L66.0531 16.7827ZM54.2059 18.8283C52.8711 18.8283 51.7795 17.7691 51.746 16.4417V16.3168C51.7792 14.9915 52.8711 13.9321 54.2059 13.9321C55.5647 13.9321 56.6664 15.0282 56.6664 16.3802C56.6664 17.7323 55.5647 18.8283 54.2059 18.8283ZM54.2067 12.6334C53.3312 12.6334 52.4948 12.9319 51.8225 13.4793L51.7461 13.5414V12.8563C51.7461 12.6737 51.7069 12.6334 51.5221 12.6334H50.663C50.4758 12.6334 50.4389 12.6707 50.4389 12.8563V23.7771C50.4389 23.9565 50.4807 24 50.663 24H51.5221C51.7051 24 51.7461 23.9574 51.7461 23.7771V19.2228L51.8225 19.285C52.4948 19.8325 53.3313 20.1309 54.2067 20.1309C56.2875 20.1309 57.9743 18.4525 57.9743 16.3821C57.9743 14.3118 56.2875 12.6334 54.2067 12.6334ZM45.3584 18.7447C43.9968 18.7447 42.893 17.6583 42.893 16.3177C42.893 14.9772 43.9969 13.8906 45.3584 13.8906C46.7198 13.8906 47.8237 14.9772 47.8237 16.3177C47.8237 17.6582 46.7199 18.7447 45.3584 18.7447ZM45.3592 12.6032C43.2743 12.6032 41.5843 14.2671 41.5843 16.3196C41.5843 18.3719 43.2743 20.0359 45.3592 20.0359C47.4441 20.0359 49.1338 18.3719 49.1338 16.3196C49.1338 14.2671 47.4442 12.6032 45.3592 12.6032ZM36.9444 12.6858C36.1832 12.6858 35.4468 12.9307 34.8358 13.3834L34.7615 13.4384V8.36657C34.7615 8.19847 34.7064 8.1436 34.5384 8.1436H33.6391C33.4575 8.1436 33.416 8.18707 33.416 8.36657V19.9366C33.416 20.1118 33.4608 20.1598 33.6391 20.1598H34.5384C34.7053 20.1598 34.7615 20.1022 34.7615 19.9366V16.1575C34.7708 14.9678 35.7456 14.0076 36.9444 14.0076C38.1462 14.0076 39.1221 14.9725 39.1271 16.1661V19.9366C39.1271 20.128 39.159 20.1597 39.3503 20.1597H40.2474C40.4375 20.1597 40.4705 20.1271 40.4705 19.9366V16.155C40.4633 14.2474 38.8742 12.6858 36.9444 12.6858ZM24.413 18.061L24.411 18.0643C24.2827 18.2587 24.229 18.3405 24.199 18.3875C24.0979 18.5381 24.1105 18.6052 24.2648 18.7358C24.6251 19.0266 25.0882 19.3319 25.4007 19.4848C26.27 19.9103 27.209 20.1351 28.204 20.1555C28.8468 20.1879 29.6541 20.035 30.2552 19.7666C31.3435 19.2807 32.0367 18.3336 32.1582 17.167C32.355 15.2768 31.1262 14.0952 27.9613 13.1429L27.9605 13.1426C26.4859 12.6666 25.7932 12.0338 25.7929 11.1503C25.8363 10.1737 26.7409 9.44421 27.9613 9.3987C28.9444 9.40115 29.8135 9.66247 30.6675 10.2126C30.8476 10.3219 30.9307 10.3017 31.0517 10.1445C31.0656 10.1213 31.1043 10.065 31.2662 9.83233L31.2667 9.83158C31.4179 9.61425 31.4676 9.5417 31.48 9.52025C31.582 9.3281 31.5675 9.25402 31.3833 9.12332C31.202 8.9933 30.6911 8.72724 30.399 8.61053C29.5865 8.28607 28.7465 8.1285 27.9105 8.14477C26.0079 8.18613 24.5241 9.42465 24.4263 11.0494C24.3643 12.223 24.9593 13.1667 26.2027 13.8644C26.5512 14.0485 27.8257 14.5307 28.4205 14.7051C30.1118 15.2009 30.9936 16.1129 30.8114 17.1889C30.6459 18.1665 29.6226 18.8167 28.1865 18.8612C27.1451 18.8395 26.0958 18.4575 25.1848 17.7722C25.1802 17.7689 25.1571 17.7517 25.1146 17.7199C25.0547 17.6753 25.0547 17.6753 25.0458 17.6686C24.86 17.5402 24.7508 17.5509 24.6374 17.72C24.6237 17.7409 24.4826 17.9556 24.413 18.061Z" fill="#EE4D2D"/>
</g>
<defs>
<clipPath id="clip0_134_23091">
<rect width="75" height="24" fill="white"/>
</clipPath>
</defs>
</svg>
