<svg width="101" height="24" viewBox="0 0 101 24" fill="none" xmlns="http://www.w3.org/2000/svg">
<g clip-path="url(#clip0_134_23107)">
<path d="M17.8438 4.80816C16.2084 3.74745 15.2271 1.94075 15.2213 0H11.0859L11.0801 16.5401C11.0042 18.4517 9.39209 19.9437 7.47629 19.8737C5.56049 19.8038 4.06523 18.1836 4.13532 16.272C4.20541 14.407 5.74156 12.9383 7.61063 12.9383C7.96108 12.9383 8.30569 12.9908 8.63862 13.1015V8.88781C8.29985 8.84119 7.95524 8.81787 7.61063 8.81205C3.4169 8.81205 0 12.2215 0 16.406C0 20.6022 3.40522 24 7.61063 24C11.816 24 15.2213 20.6022 15.2213 16.406V8.01943C16.8976 9.22001 18.9127 9.86693 20.9745 9.86693V5.74065C19.8647 5.74065 18.7783 5.42011 17.8438 4.80816Z" fill="black"/>
<path d="M24.9297 5.76396H37.9665L36.7691 9.48227H33.3814V23.2482H29.1701V9.48227L24.9297 9.4881V5.76396Z" fill="black"/>
<path d="M59.332 5.76396H72.6725L71.4752 9.48227H67.7954V23.2482H63.5725V9.48227L59.332 9.4881V5.76396Z" fill="black"/>
<path d="M38.7656 11.3239H42.9418V23.2482H38.789L38.7656 11.3239Z" fill="black"/>
<path d="M44.6016 5.71152H48.7778V13.8533L52.9189 9.80282H57.9012L52.6678 14.8732L58.532 23.2482H53.9294L50.016 17.4376L48.7778 18.6382V23.2424H44.6016V5.71152Z" fill="black"/>
<path d="M87.0703 5.71152H91.2465V13.8533L95.3877 9.80282H100.376L95.1424 14.8732L101.007 23.2482H96.404L92.4906 17.4376L91.2524 18.6382V23.2424H87.0762V5.71152H87.0703Z" fill="black"/>
<path d="M40.8527 9.96017C42.014 9.96017 42.9554 9.02082 42.9554 7.86207C42.9554 6.70332 42.014 5.76396 40.8527 5.76396C39.6914 5.76396 38.75 6.70332 38.75 7.86207C38.75 9.02082 39.6914 9.96017 40.8527 9.96017Z" fill="black"/>
<path d="M78.2136 8.96941C74.2652 8.96941 71.0586 12.1632 71.0586 16.103C71.0586 20.0427 74.2594 23.2424 78.2078 23.2424C82.1562 23.2424 85.3628 20.0486 85.3628 16.1088C85.3687 12.169 82.1679 8.97523 78.2136 8.96941ZM78.2136 19.5765C76.292 19.5765 74.7383 18.0262 74.7383 16.1088C74.7383 14.1914 76.292 12.6411 78.2136 12.6411C80.1353 12.6411 81.6889 14.1914 81.6889 16.1088C81.6948 18.0262 80.1353 19.5765 78.2136 19.5765Z" fill="black"/>
</g>
<defs>
<clipPath id="clip0_134_23107">
<rect width="101" height="24" fill="white"/>
</clipPath>
</defs>
</svg>
