<svg width="24" height="24" viewBox="0 0 24 24" fill="none" xmlns="http://www.w3.org/2000/svg">
<path d="M21.5 7.5V13.5C21.5 17.2712 21.5 19.1569 20.3284 20.3284C19.1569 21.5 17.2712 21.5 13.5 21.5H10.5C8.23386 21.5 6.6486 21.5 5.48999 21.2458" stroke="#929292" stroke-width="1.5" stroke-linecap="round" stroke-linejoin="round"/>
<path d="M3.86909 5.31461L2.5 7.5H21.5L20.2478 5.41303C19.3941 3.99021 18.9673 3.2788 18.2795 2.8894C17.5918 2.5 16.7621 2.5 15.1029 2.5H8.95371C7.32998 2.5 6.51812 2.5 5.84013 2.8753C5.16215 3.2506 4.73113 3.93861 3.86909 5.31461Z" stroke="#929292" stroke-width="1.5" stroke-linecap="round" stroke-linejoin="round"/>
<path d="M12 7.5V2.5" stroke="#929292" stroke-width="1.5" stroke-linecap="round" stroke-linejoin="round"/>
<path d="M6.41675 10.5H12.2501" stroke="#929292" stroke-width="1.5" stroke-linecap="round"/>
<path d="M6.41675 14H12.2501" stroke="#929292" stroke-width="1.5" stroke-linecap="round"/>
<path d="M6.41675 17.5H12.2501" stroke="#929292" stroke-width="1.5" stroke-linecap="round"/>
<path d="M1.75 11.6458C1.75 11.6458 2.33333 12.026 2.625 12.5833C2.625 12.5833 3.5 10.3958 4.66667 9.66666" stroke="#929292" stroke-width="1.5" stroke-linecap="round" stroke-linejoin="round"/>
<path d="M1.75 16.9792C1.75 16.9792 2.33333 17.3594 2.625 17.9167C2.625 17.9167 3.5 15.7292 4.66667 15" stroke="#929292" stroke-width="1.5" stroke-linecap="round" stroke-linejoin="round"/>
</svg>
