<svg width="167" height="36" viewBox="0 0 167 36" fill="none" xmlns="http://www.w3.org/2000/svg">
<g clip-path="url(#clip0_2741_6719)">
<path d="M14.5123 24.8343V19.9438H27.144V31.5056C25.9151 32.694 24.1373 33.7388 21.8075 34.6433C19.4777 35.5478 17.1197 36 14.7307 36C11.6959 36 9.04799 35.3637 6.79301 34.0881C4.53491 32.8156 2.83822 30.9941 1.70293 28.6269C0.567643 26.2565 0 23.6803 0 20.8951C0 17.8729 0.633141 15.1875 1.89942 12.8389C3.16882 10.4873 5.02146 8.68453 7.46357 7.43072C9.32557 6.4701 11.6398 5.98666 14.4125 5.98666C18.0149 5.98666 20.8313 6.74144 22.8554 8.25412C24.8827 9.76679 26.1833 11.8533 26.7666 14.52L20.9467 15.6085C20.5381 14.1832 19.7677 13.0572 18.6387 12.2339C17.5096 11.4105 16.0999 10.9956 14.4125 10.9956C11.8519 10.9956 9.81524 11.8066 8.30568 13.4315C6.79301 15.0565 6.03823 17.4643 6.03823 20.658C6.03823 24.1013 6.80236 26.6869 8.33375 28.4086C9.86514 30.1302 11.8706 30.991 14.3533 30.991C15.5821 30.991 16.811 30.7509 18.0461 30.2674C19.2812 29.7871 20.3385 29.2008 21.2242 28.5146V24.8343H14.5123Z" fill="#004368"/>
<path d="M37.8325 35.5041H32.2683V14.4795H37.4364V17.4674C38.319 16.0545 39.1143 15.1251 39.8223 14.676C40.5272 14.2269 41.3288 14.0023 42.227 14.0023C43.4933 14.0023 44.7159 14.3516 45.8886 15.0502L44.167 19.9002C43.2282 19.292 42.358 18.9894 41.5533 18.9894C40.7736 18.9894 40.1155 19.2046 39.5728 19.6319C39.0301 20.0623 38.606 20.8358 38.2972 21.9586C37.9884 23.0815 37.8325 25.43 37.8325 29.0074V35.5041Z" fill="#004368"/>
<path d="M46.999 24.697C46.999 22.8506 47.4543 21.0604 48.365 19.3325C49.2758 17.6046 50.567 16.2822 52.2356 15.3715C53.9042 14.4608 55.7694 14.0054 57.8278 14.0054C61.0091 14.0054 63.6166 15.0378 65.647 17.1025C67.6805 19.1672 68.6973 21.7777 68.6973 24.931C68.6973 28.1123 67.6711 30.7477 65.6189 32.8405C63.5667 34.9333 60.9842 35.9782 57.8684 35.9782C55.9409 35.9782 54.1039 35.5415 52.3541 34.6713C50.6044 33.8012 49.2758 32.5224 48.365 30.8413C47.4543 29.1602 46.999 27.1111 46.999 24.697ZM52.7003 24.9933C52.7003 27.0799 53.1962 28.6768 54.1849 29.784C55.1736 30.8912 56.3963 31.4464 57.8466 31.4464C59.2969 31.4464 60.5163 30.8912 61.4988 29.784C62.4813 28.6768 62.9741 27.0643 62.9741 24.9528C62.9741 22.8943 62.4813 21.3099 61.4988 20.2027C60.5163 19.0955 59.2969 18.5403 57.8466 18.5403C56.3931 18.5403 55.1736 19.0955 54.1849 20.2027C53.1962 21.3099 52.7003 22.9068 52.7003 24.9933Z" fill="#004368"/>
<path d="M70.8182 35.5041V31.1688L78.6966 22.1208C79.9909 20.6424 80.9453 19.5945 81.566 18.9738C80.9204 19.0144 80.0689 19.0393 79.0116 19.0518L71.5885 19.0923V14.4795H88.9703V18.4187L80.9328 27.685L78.1009 30.754C79.6447 30.6604 80.6022 30.6167 80.9703 30.6167H89.5816V35.5072H70.8182V35.5041Z" fill="#004368"/>
<path d="M91.0908 35.5041V31.1688L98.9692 22.1208C100.264 20.6424 101.218 19.5945 101.839 18.9738C101.193 19.0144 100.342 19.0393 99.2842 19.0518L91.8612 19.0923V14.4795H109.243V18.4187L101.205 27.685L98.3735 30.754C99.9174 30.6604 100.875 30.6167 101.243 30.6167H109.854V35.5072H91.0908V35.5041Z" fill="#004368"/>
<path d="M113.6 11.6288V6.48257H119.165V11.6288H113.6ZM113.6 35.5041V14.4795H119.165V35.5041H113.6Z" fill="#004368"/>
<path d="M124.866 11.6287V6.48251H130.43V11.6287H124.866ZM124.866 35.504V14.4794H130.43V35.504H124.866Z" fill="#004368"/>
<path d="M148.304 28.814L153.846 29.7434C153.132 31.7769 152.009 33.3239 150.472 34.3875C148.934 35.451 147.01 35.9812 144.702 35.9812C141.046 35.9812 138.339 34.7867 136.583 32.3976C135.198 30.4826 134.503 28.0685 134.503 25.1524C134.503 21.6685 135.414 18.9395 137.235 16.9652C139.057 14.9909 141.358 14.0053 144.144 14.0053C147.272 14.0053 149.739 15.0377 151.548 17.1024C153.357 19.1671 154.221 22.3328 154.143 26.5964H140.204C140.245 28.2463 140.694 29.5313 141.552 30.4483C142.409 31.3652 143.479 31.8237 144.758 31.8237C145.628 31.8237 146.361 31.5867 146.957 31.1095C147.552 30.6323 148.002 29.8682 148.304 28.814ZM148.622 23.1906C148.582 21.5812 148.167 20.3555 147.375 19.5196C146.582 18.6806 145.619 18.2627 144.483 18.2627C143.27 18.2627 142.266 18.7055 141.474 19.5882C140.682 20.474 140.292 21.6748 140.304 23.1906H148.622Z" fill="#004368"/>
</g>
<path d="M159.138 0C155.281 0 152.154 3.12726 152.154 6.98412C152.154 10.841 155.281 13.9682 159.138 13.9682C162.995 13.9682 166.122 10.841 166.122 6.98412C166.122 3.12726 162.995 0 159.138 0ZM159.138 12.7834C155.936 12.7834 153.339 10.1862 153.339 6.98412C153.339 3.78202 155.936 1.18481 159.138 1.18481C162.34 1.18481 164.937 3.78202 164.937 6.98412C164.937 10.1862 162.34 12.7834 159.138 12.7834ZM160.502 7.56561C161.045 7.36606 161.724 6.80172 161.724 5.70733C161.724 4.59736 161.015 3.66354 159.476 3.66354H157.049C156.98 3.66354 156.924 3.71967 156.924 3.78826V10.18C156.924 10.2486 156.98 10.3047 157.049 10.3047H157.899C157.967 10.3047 158.023 10.2486 158.023 10.18V7.75112H159.406L160.569 10.233C160.589 10.2766 160.633 10.3047 160.681 10.3047H161.648C161.669 10.3049 161.69 10.2996 161.708 10.2893C161.727 10.2791 161.743 10.2643 161.754 10.2462C161.765 10.2282 161.771 10.2076 161.772 10.1865C161.773 10.1653 161.768 10.1443 161.759 10.1254L160.502 7.56561ZM159.294 6.87499H158.023V4.56774H159.324C160.072 4.56774 160.585 4.96215 160.585 5.74475C160.585 6.4759 160.12 6.87499 159.294 6.87499Z" fill="#004368"/>
<defs>
<clipPath id="clip0_2741_6719">
<rect width="154.149" height="30.0133" fill="white" transform="translate(0 5.98666)"/>
</clipPath>
</defs>
</svg>
