<svg width="234" height="347" viewBox="0 0 234 347" fill="none" xmlns="http://www.w3.org/2000/svg">
<path d="M115.124 48.195C115.124 44.3903 115.124 42.4879 116.306 41.3059C117.488 40.124 119.39 40.124 123.195 40.124C127 40.124 128.902 40.124 130.084 41.3059C131.266 42.4879 131.266 44.3903 131.266 48.195C131.266 51.9997 131.266 53.9021 130.084 55.0841C128.902 56.266 127 56.266 123.195 56.266C119.39 56.266 117.488 56.266 116.306 55.0841C115.124 53.9021 115.124 51.9997 115.124 48.195Z" stroke="#003D5F" stroke-width="1.5" stroke-linejoin="round"/>
<path d="M121.951 47.3518C121.254 47.2533 119.666 47.4163 118.888 48.8561C118.109 50.2959 118.894 51.7945 119.384 52.3638C119.867 52.8964 121.404 53.905 123.035 52.9203C123.439 52.6762 123.942 52.4941 124.514 50.5868L124.447 43.0817C124.337 43.9081 125.25 45.8465 127.849 46.0759" stroke="#003D5F" stroke-width="1.5" stroke-linecap="round" stroke-linejoin="round"/>
<path d="M30.583 101.929C31.2019 103.193 32.7286 103.716 33.9928 103.097C35.2571 102.478 35.7802 100.952 35.1613 99.6875" stroke="#54819A" stroke-width="1.5" stroke-linecap="round" stroke-linejoin="round"/>
<path d="M32.5995 98.1037L30.9028 98.9343C28.8647 99.9321 27.8457 100.431 27.4945 101.379C27.1433 102.327 27.5881 103.379 28.4776 105.482L30.4663 110.184C31.4509 112.512 31.9432 113.676 32.9668 114.063C33.9904 114.449 35.1183 113.897 37.3742 112.793L39.5764 111.715C41.8323 110.61 42.9603 110.058 43.2827 109.013C43.6052 107.967 42.9878 106.864 41.7529 104.659L39.2588 100.204C38.1431 98.2116 37.5853 97.2153 36.621 96.9111C35.6567 96.607 34.6376 97.1058 32.5995 98.1037Z" stroke="#54819A" stroke-width="1.5" stroke-linecap="round" stroke-linejoin="round"/>
<path d="M33.955 97.4401L35.6516 96.6094C37.6897 95.6117 38.7088 95.1128 39.6731 95.4169C40.6374 95.7211 41.1952 96.7174 42.3109 98.71L44.805 103.165C46.0399 105.37 46.6574 106.473 46.3349 107.518C46.0124 108.564 44.8844 109.116 42.6285 110.221L40.4264 111.299" stroke="#54819A" stroke-width="1.5" stroke-linecap="round" stroke-linejoin="round"/>
<path d="M72.124 17.2214H88.266L87.2768 23.157C86.9377 25.1913 86.7682 26.2084 86.0552 26.8125C85.3422 27.4164 84.311 27.4164 82.2486 27.4164H78.1413C76.079 27.4164 75.0478 27.4164 74.3348 26.8125C73.6218 26.2084 73.4523 25.1913 73.1132 23.157L72.124 17.2214Z" stroke="#54819A" stroke-width="1.5" stroke-linecap="round" stroke-linejoin="round"/>
<path d="M80.1953 20.6198V24.0181" stroke="#54819A" stroke-width="1.5" stroke-linecap="round" stroke-linejoin="round"/>
<path d="M83.5938 20.6198V24.0181" stroke="#54819A" stroke-width="1.5" stroke-linecap="round" stroke-linejoin="round"/>
<path d="M76.7966 20.6198V24.0181" stroke="#54819A" stroke-width="1.5" stroke-linecap="round" stroke-linejoin="round"/>
<path d="M89.1156 17.2214H71.2744" stroke="#54819A" stroke-width="1.5" stroke-linecap="round" stroke-linejoin="round"/>
<path d="M85.2929 17.2214L82.7441 12.9735" stroke="#54819A" stroke-width="1.5" stroke-linecap="round" stroke-linejoin="round"/>
<path d="M75.0975 17.2215L77.6462 12.9735" stroke="#54819A" stroke-width="1.5" stroke-linecap="round" stroke-linejoin="round"/>
<path d="M35.0352 60.0981C33.559 59.0614 32.821 58.5431 32.5168 57.859C32.318 57.4119 32.2481 56.9231 32.3151 56.4481C32.4176 55.7212 32.9878 55.0654 34.1282 53.7539C35.0801 52.659 35.5561 52.1115 36.1622 51.8896C36.5601 51.7439 36.9917 51.6985 37.4188 51.7575C38.0694 51.8474 38.6856 52.2801 39.9178 53.1454L46.3782 57.6824C47.6105 58.5478 48.2266 58.9804 48.5319 59.5619C48.7324 59.9437 48.8363 60.3651 48.8343 60.7888C48.8312 61.4342 48.4778 62.0678 47.771 63.3348C46.9244 64.8527 46.5011 65.6116 45.8521 65.9548C45.428 66.179 44.9446 66.2792 44.4565 66.2439C43.7098 66.19 42.9718 65.6717 41.4956 64.635" stroke="#003D5F" stroke-width="1.5"/>
<path d="M46.6246 57.8552L47.6011 56.4647C48.5218 55.1537 48.9822 54.4982 48.8609 53.8049C48.7396 53.1116 48.0841 52.6513 46.7731 51.7306L45.3826 50.7541C44.0716 49.8334 43.4161 49.3731 42.7228 49.4943C42.0295 49.6156 41.5692 50.2711 40.6485 51.5821L39.672 52.9726" stroke="#003D5F" stroke-width="1.5" stroke-linejoin="round"/>
<path d="M40.6245 61.947L37.8592 60.005C37.3828 59.6704 37.1445 59.5031 36.8887 59.4365C36.5476 59.3476 36.1784 59.3811 35.8401 59.5317C35.5863 59.6446 35.3524 59.8548 34.8847 60.2752C34.1538 60.932 33.7884 61.2604 33.6291 61.6177C33.4168 62.0941 33.423 62.6279 33.6458 63.0647C33.8129 63.3923 34.1852 63.6538 34.9296 64.1766L37.695 66.1186C38.4395 66.6414 38.8117 66.9028 39.1766 66.9488C39.6631 67.0101 40.1674 66.8348 40.5434 66.4734C40.8254 66.2023 41.0103 65.7471 41.3801 64.8367C41.6167 64.254 41.735 63.9626 41.7551 63.6856C41.7819 63.3162 41.6882 62.9577 41.4888 62.667C41.3392 62.4489 41.101 62.2816 40.6245 61.947Z" stroke="#003D5F" stroke-width="1.5" stroke-linejoin="round"/>
<path d="M45.3662 61.1245L45.3725 61.1289" stroke="#003D5F" stroke-width="2" stroke-linecap="round" stroke-linejoin="round"/>
<path d="M144.763 7.10091L149.035 8.77245C151.499 9.73656 152.731 10.2185 152.69 10.9832C152.649 11.7479 151.363 12.0985 148.792 12.7997C148.027 13.0086 147.644 13.113 147.378 13.3783C147.113 13.6437 147.009 14.0265 146.8 14.7922C146.098 17.3633 145.748 18.649 144.983 18.6898C144.219 18.7307 143.737 17.4988 142.772 15.035L141.101 10.7634C140.092 8.18385 139.587 6.89411 140.24 6.24048C140.894 5.58687 142.184 6.09154 144.763 7.10091Z" stroke="#003D5F" stroke-width="1.5" stroke-linejoin="round"/>
<path d="M141.646 3.39832V1.69916M138.248 4.2479L136.974 2.97353M137.398 7.64623H135.699M138.248 11.0446L136.974 12.3189M146.319 2.97353L145.045 4.2479" stroke="#003D5F" stroke-width="1.5" stroke-linecap="round" stroke-linejoin="round"/>
<path d="M219.297 75.6082L225.11 79.1299" stroke="#54819A" stroke-width="1.5" stroke-linecap="round" stroke-linejoin="round"/>
<path d="M217.536 78.5147L220.443 80.2756" stroke="#54819A" stroke-width="1.5" stroke-linecap="round" stroke-linejoin="round"/>
<path d="M216.547 88.3455L216.767 87.9822C218.012 85.927 218.635 84.8993 219.66 84.6477C220.685 84.396 221.713 85.0185 223.768 86.2636L224.132 86.4838M225.224 85.4999L226.696 83.0707C228.356 80.3304 229.186 78.9602 228.851 77.5931C228.515 76.2261 227.145 75.396 224.405 73.7359C221.664 72.0757 220.294 71.2456 218.927 71.5812C217.56 71.9168 216.73 73.2869 215.07 76.0272L213.069 79.3292C211.641 81.6871 210.927 82.8661 211.087 84.0548C211.119 84.2949 211.177 84.5308 211.26 84.7586C211.668 85.8863 212.847 86.6005 215.205 88.029C215.718 88.3396 215.974 88.4949 216.259 88.5543C216.318 88.5667 216.378 88.5758 216.438 88.5818C216.728 88.6104 217.019 88.539 217.601 88.3961L223.128 87.0394C223.802 86.8739 224.14 86.7911 224.412 86.591C224.684 86.391 224.864 86.0939 225.224 85.4999Z" stroke="#54819A" stroke-width="1.5" stroke-linecap="round" stroke-linejoin="round"/>
<path d="M197.233 30.403L195.823 29.4541C193.83 28.1123 192.833 27.4414 191.797 27.6438C190.761 27.8462 190.09 28.8429 188.748 30.8363L186.376 34.3602C185.034 36.3536 184.363 37.3504 184.566 38.3865C184.768 39.4227 185.765 40.0936 187.758 41.4354L188.705 42.0726C189.281 42.4605 189.569 42.6544 189.9 42.7215C190.232 42.7885 190.573 42.722 191.254 42.5888L194.387 41.9768C195.069 41.8436 195.41 41.777 195.691 41.5902C195.973 41.4034 196.167 41.1153 196.555 40.5391L198.615 37.4782C199.957 35.4847 200.628 34.488 200.426 33.4519C200.223 32.4157 199.226 31.7448 197.233 30.403Z" stroke="#003D5F" stroke-width="1.5" stroke-linecap="round" stroke-linejoin="round"/>
<path d="M189.757 42.2691L190.232 41.5643C191.126 40.2354 191.574 39.5709 192.265 39.436C192.955 39.301 193.62 39.7483 194.949 40.6428L195.653 41.1173" stroke="#003D5F" stroke-width="1.5" stroke-linecap="round" stroke-linejoin="round"/>
<path d="M184.953 36.4746C183.785 35.6886 183.475 34.1048 184.261 32.937L188.057 27.2988C189.399 25.3053 190.07 24.3086 191.106 24.1062C192.142 23.9038 193.139 24.5747 195.132 25.9166L198.656 28.2888C199.824 29.0749 200.133 30.6588 199.347 31.8265" stroke="#003D5F" stroke-width="1.5" stroke-linecap="round" stroke-linejoin="round"/>
<path d="M190.266 33.9068L193.086 35.8044M192.164 31.0876L197.098 34.4086" stroke="#003D5F" stroke-width="1.5" stroke-linecap="round" stroke-linejoin="round"/>
<path d="M152.165 72.6476L149.774 71.764C149.023 71.4863 148.647 71.3474 148.328 71.4946C148.008 71.6417 147.869 72.0174 147.591 72.7687C147.314 73.52 147.175 73.8956 147.322 74.2153C147.469 74.535 147.845 74.6738 148.596 74.9515L150.987 75.8351C151.738 76.1128 152.114 76.2517 152.433 76.1045C152.753 75.9574 152.892 75.5817 153.17 74.8304C153.447 74.0791 153.586 73.7035 153.439 73.3838C153.292 73.0641 152.916 72.9253 152.165 72.6476Z" stroke="#54819A" stroke-width="1.5" stroke-linecap="round" stroke-linejoin="round"/>
<path d="M161.225 75.0906L162.698 71.1061C162.99 70.3162 163.136 69.9213 163.149 69.5079C163.163 69.0945 163.042 68.6909 162.802 67.8839C162.445 66.6852 162.267 66.0859 161.855 65.6469C161.444 65.2079 160.857 64.9911 159.684 64.5576L154.106 62.4958C152.932 62.0622 152.346 61.8454 151.748 61.9112C151.15 61.977 150.624 62.3162 149.574 62.9946C148.866 63.4513 148.512 63.6797 148.254 64.0024C147.995 64.3251 147.849 64.72 147.557 65.5099L146.084 69.4944C144.974 72.4996 144.418 74.0023 145.007 75.281C145.595 76.5597 147.098 77.1151 150.103 78.2258L152.494 79.1094C155.499 80.2202 157.002 80.7756 158.28 80.187C159.559 79.5985 160.115 78.0958 161.225 75.0906Z" stroke="#54819A" stroke-width="1.5" stroke-linecap="round" stroke-linejoin="round"/>
<path d="M148.545 64.0634L162.889 69.365" stroke="#54819A" stroke-width="1.5" stroke-linecap="round" stroke-linejoin="round"/>
<path d="M157.709 67.4506L153.724 65.9779L155.699 63.0849L158.09 63.9685L157.709 67.4506Z" stroke="#54819A" stroke-width="1.5" stroke-linecap="round" stroke-linejoin="round"/>
<path d="M157.709 67.4506L157.12 69.0444C156.842 69.7957 156.703 70.1713 156.384 70.3185C156.064 70.4656 155.688 70.3268 154.937 70.0491L154.14 69.7545C153.389 69.4769 153.013 69.338 152.866 69.0183C152.719 68.6987 152.858 68.323 153.135 67.5717L153.724 65.9779" stroke="#54819A" stroke-width="1.5" stroke-linecap="round" stroke-linejoin="round"/>
<g clip-path="url(#clip0_2741_6733)">
<path d="M97.4095 98.1647L89.6669 101.152C89.2476 101.314 88.7835 101.316 88.3628 101.158C87.9421 101 87.594 100.693 87.3848 100.295L82.618 91.235L95.9704 86.083L98.5247 95.9972C98.6369 96.4324 98.5852 96.8936 98.3796 97.2932C98.174 97.6928 97.8288 98.0029 97.4095 98.1647Z" stroke="#336986" stroke-width="1.5" stroke-linecap="round" stroke-linejoin="round"/>
<path d="M84.7417 90.4155L84.3108 89.2986C83.8574 88.0927 83.8988 86.7566 84.4259 85.5811C84.9529 84.4056 85.923 83.4858 87.1249 83.0221C88.3268 82.5584 89.6632 82.5881 90.8432 83.105C92.0232 83.6218 92.9513 84.5839 93.4255 85.7817L93.8565 86.8989" stroke="#336986" stroke-width="1.5" stroke-linecap="round" stroke-linejoin="round"/>
<path d="M90.5512 97.6095C91.1873 97.7891 91.7282 97.7221 92.7148 97.3414L93.2082 97.1511C93.6334 96.987 93.976 96.6607 94.1606 96.2441C94.3453 95.8274 94.3569 95.3544 94.1928 94.9292C94.0287 94.504 93.7025 94.1614 93.2858 93.9767C92.8691 93.7921 92.3962 93.7805 91.9709 93.9445L90.861 94.3728C90.4358 94.5369 89.9628 94.5253 89.5461 94.3407C89.1294 94.156 88.8032 93.8134 88.6391 93.3882C88.475 92.963 88.4866 92.49 88.6713 92.0733C88.8559 91.6566 89.1986 91.3304 89.6238 91.1663L90.1171 90.976C91.227 90.5477 91.7679 90.4807 92.2807 90.7079" stroke="#336986" stroke-width="1.5" stroke-linecap="round" stroke-linejoin="round"/>
</g>
<g clip-path="url(#clip1_2741_6733)">
<path d="M174.553 110.975L172.874 114.099C172.304 115.159 170.859 116.049 169.648 116.086L166.081 116.194L163.713 120.598L174.503 120.271L179.582 110.823L174.553 110.975Z" stroke="#004368" stroke-width="1.5" stroke-linecap="round" stroke-linejoin="round"/>
<path d="M179.582 110.823L184.426 118.656L179.583 127.664C179.436 127.936 179.156 128.109 178.847 128.119L168.557 128.43L163.713 120.598" stroke="#004368" stroke-width="1.5" stroke-linecap="round" stroke-linejoin="round"/>
<path d="M174.502 120.271L179.275 127.988" stroke="#004368" stroke-width="1.5" stroke-linecap="round" stroke-linejoin="round"/>
</g>
<g clip-path="url(#clip2_2741_6733)">
<path d="M41.945 18.0765C41.9407 18.0173 41.9259 17.9611 41.9004 17.9067C41.8746 17.853 41.8403 17.8054 41.796 17.7647C41.8483 17.7843 41.9021 17.7918 41.9548 17.7884C42.0079 17.7844 42.0603 17.7706 42.1107 17.7473C42.1615 17.7233 42.2092 17.6918 42.2528 17.6514C42.2971 17.6114 42.3353 17.564 42.3682 17.5097C42.4121 17.437 42.4387 17.3631 42.4482 17.2872C42.4577 17.2113 42.451 17.1386 42.4285 17.0684C42.4052 16.9978 42.3682 16.9308 42.3163 16.8679C42.2645 16.805 42.1986 16.7494 42.1188 16.7012C42.0571 16.6639 41.9928 16.6343 41.9268 16.6138C41.8611 16.5927 41.7949 16.5804 41.7295 16.5762C41.6638 16.5726 41.6012 16.5765 41.5402 16.5888C41.4796 16.6004 41.425 16.6211 41.3763 16.651L41.4223 16.9562C41.5042 16.9046 41.5895 16.8773 41.6763 16.8761C41.7636 16.8741 41.849 16.8989 41.9321 16.9482C42.0154 16.9986 42.0707 17.0589 42.0979 17.131C42.1258 17.2035 42.1131 17.2831 42.0609 17.3693C42.0084 17.4562 41.9361 17.5109 41.8428 17.5324C41.7502 17.5543 41.6489 17.532 41.5392 17.4666L41.4657 17.4221L41.3251 17.6562L41.3909 17.696C41.5177 17.7726 41.5959 17.8599 41.6256 17.9594C41.6546 18.0586 41.6378 18.1607 41.5746 18.2653C41.5134 18.3665 41.4394 18.4256 41.3504 18.4414C41.2622 18.4576 41.1639 18.4335 41.0561 18.3682C40.9616 18.3111 40.8949 18.2457 40.8556 18.17C40.8163 18.0943 40.7975 18.0115 40.7985 17.9212L40.5105 18.029C40.5133 18.1541 40.547 18.2691 40.6128 18.3738C40.6786 18.4785 40.7734 18.5683 40.8967 18.6429C40.9898 18.6992 41.0814 18.736 41.1723 18.7548C41.2633 18.7737 41.35 18.7742 41.4321 18.757C41.5142 18.7399 41.5902 18.7061 41.6592 18.6551C41.7283 18.6041 41.7888 18.5358 41.8401 18.4509C41.8783 18.3877 41.9056 18.3236 41.9217 18.2591C41.9437 18.1973 41.9494 18.1358 41.945 18.0765Z" fill="#003D5F"/>
<path d="M43.3918 19.1082L43.1764 18.9789L43.8937 17.7847L43.7106 17.6749L42.1539 18.3717L41.9936 18.6383L42.7442 19.0894L42.4843 19.5223L42.753 19.6838L43.0128 19.251L43.2282 19.3803L43.3918 19.1082ZM42.4307 18.5307L43.3792 18.0979L42.9365 18.8347L42.4307 18.5307Z" fill="#003D5F"/>
<path d="M44.8202 19.5185C44.802 19.4332 44.7665 19.3543 44.7164 19.2822C44.6655 19.2097 44.5996 19.1495 44.5177 19.0999C44.4561 19.0626 44.3953 19.0398 44.3367 19.0322C44.2786 19.024 44.2246 19.0294 44.1768 19.0468L44.5817 18.5718L45.2349 18.9641L45.4001 18.6893L44.5522 18.1793C44.3983 18.358 44.2575 18.5196 44.1314 18.6632C44.0773 18.7242 44.0244 18.7849 43.9725 18.8453C43.9206 18.9058 43.8736 18.9599 43.8309 19.0083C43.7882 19.0567 43.753 19.0976 43.7256 19.1302C43.6983 19.1628 43.6816 19.1824 43.6757 19.189L43.9128 19.3315C43.982 19.2945 44.0522 19.2766 44.1242 19.2793C44.1961 19.2821 44.2626 19.3019 44.3246 19.3384C44.3716 19.3668 44.4096 19.4019 44.4396 19.4441C44.4684 19.4866 44.4886 19.5322 44.498 19.5815C44.5082 19.6312 44.5087 19.6826 44.4991 19.738C44.4899 19.7927 44.4683 19.8474 44.4354 19.9017C44.3664 20.0158 44.2788 20.088 44.1729 20.1177C44.0658 20.1476 43.9623 20.1322 43.8614 20.0712C43.7802 20.0221 43.7178 19.9529 43.674 19.8624C43.6302 19.7719 43.6091 19.6756 43.6088 19.5716L43.3446 19.6464C43.3326 19.7848 43.3573 19.9148 43.419 20.0374C43.481 20.1594 43.5742 20.2584 43.6995 20.3342C43.7871 20.3871 43.8791 20.4215 43.9744 20.4364C44.0696 20.4513 44.1628 20.4474 44.2534 20.4242C44.3439 20.401 44.4288 20.3587 44.5084 20.2983C44.5879 20.2379 44.6567 20.1589 44.7146 20.0631C44.7693 19.9728 44.8051 19.8804 44.8224 19.7869C44.8397 19.6935 44.8392 19.6042 44.8202 19.5185Z" fill="#003D5F"/>
<path d="M45.7914 21.3571C45.8866 21.3294 45.9758 21.2831 46.0593 21.2195C46.1424 21.1548 46.2123 21.0755 46.2698 20.9804C46.3261 20.8874 46.3619 20.7903 46.3792 20.6904C46.3959 20.5901 46.3948 20.4939 46.3756 20.4007C46.3564 20.3074 46.3192 20.2219 46.2645 20.1415C46.2095 20.0618 46.1385 19.9957 46.0516 19.9432C45.9564 19.8856 45.8569 19.8588 45.7538 19.8632C45.6507 19.8676 45.5555 19.9001 45.4686 19.9616C45.6008 19.7493 45.7399 19.6062 45.8849 19.5325C46.0306 19.4592 46.1662 19.4596 46.2922 19.5358C46.3742 19.5854 46.4356 19.6531 46.476 19.7397C46.5164 19.8263 46.5322 19.9203 46.5235 20.0217L46.801 19.9297C46.8062 19.7882 46.7785 19.6601 46.7189 19.5452C46.6588 19.431 46.5717 19.3394 46.4583 19.2708C46.3546 19.2081 46.2456 19.1765 46.1331 19.1743C46.0202 19.1728 45.9052 19.2016 45.7892 19.2622C45.6731 19.3228 45.5553 19.4148 45.4369 19.538C45.3184 19.6611 45.2021 19.8171 45.0878 20.0077C45.0051 20.146 44.9461 20.2783 44.9119 20.406C44.8777 20.5337 44.866 20.6528 44.8775 20.7618C44.8887 20.8715 44.9235 20.9705 44.9798 21.0592C45.0365 21.1473 45.1138 21.2219 45.213 21.281C45.3033 21.3356 45.3991 21.3685 45.4989 21.3806C45.5983 21.3934 45.6958 21.3856 45.7914 21.3571ZM45.3704 21.019C45.3186 20.9877 45.2761 20.9472 45.2435 20.8968C45.2108 20.8465 45.1894 20.7918 45.1785 20.7323C45.1676 20.6728 45.1678 20.6108 45.1783 20.5476C45.1888 20.4844 45.2111 20.4237 45.246 20.3659C45.2809 20.3082 45.3232 20.2605 45.3732 20.2221C45.4232 20.1837 45.4772 20.156 45.5349 20.1381C45.5923 20.1208 45.6507 20.1144 45.7104 20.1199C45.7702 20.1254 45.8255 20.1431 45.8773 20.1745C45.9292 20.2058 45.9716 20.2463 46.0043 20.2967C46.0369 20.347 46.0588 20.4011 46.0701 20.4599C46.0814 20.5186 46.082 20.5793 46.0719 20.6419C46.0618 20.7044 46.0392 20.764 46.005 20.8221C45.9701 20.8799 45.9274 20.9283 45.8766 20.968C45.8255 21.0067 45.7713 21.0361 45.7132 21.0547C45.6551 21.0734 45.5967 21.0798 45.5369 21.0743C45.4775 21.0681 45.4222 21.0504 45.3704 21.019Z" fill="#003D5F"/>
<path d="M39.3656 15.0352L39.0966 14.8726C39.0828 14.8828 39.0474 14.8939 38.9926 14.9071C38.9366 14.9206 38.8739 14.9309 38.8027 14.9379C38.7315 14.9449 38.6611 14.946 38.5903 14.9412C38.5196 14.9364 38.463 14.9208 38.4189 14.8941L38.2501 15.1733C38.2879 15.1961 38.3374 15.214 38.3978 15.2264C38.4582 15.2388 38.5197 15.2463 38.5818 15.2495C38.6439 15.2528 38.7027 15.2503 38.7586 15.2433C38.8145 15.2363 38.8598 15.2247 38.8933 15.2088L38.1096 16.5047L37.6852 16.2481L37.5246 16.5137L38.5975 17.1625L38.7581 16.8969L38.3785 16.6674L39.3656 15.0352Z" fill="#003D5F"/>
<path d="M39.4441 17.0752C39.5133 17.0447 39.5852 17.0223 39.6619 17.0093C39.7379 16.9959 39.8138 16.989 39.889 16.988C39.9642 16.9871 40.0319 16.9873 40.0902 16.9891C40.1491 16.9913 40.2164 16.9922 40.2927 16.991C40.3697 16.9903 40.4466 16.9802 40.5252 16.9609C40.6038 16.9416 40.6792 16.9103 40.7518 16.8661C40.8244 16.8219 40.8871 16.7577 40.9397 16.6708C40.9841 16.5975 41.0115 16.5204 41.0234 16.4376C41.0348 16.3554 41.0301 16.2746 41.0092 16.1953C40.9877 16.1154 40.9491 16.0401 40.8917 15.9674C40.835 15.8951 40.7605 15.8315 40.6688 15.776C40.575 15.7193 40.4831 15.6814 40.3916 15.6603C40.3004 15.6404 40.2158 15.6301 40.1359 15.6309C40.0564 15.6311 39.9874 15.6376 39.929 15.6487C39.8703 15.6605 39.8272 15.6715 39.7992 15.6815L39.8408 15.997C39.8738 15.9836 39.9131 15.9693 39.9596 15.9556C40.0065 15.9413 40.057 15.932 40.1117 15.9271C40.1664 15.9221 40.2237 15.9252 40.2843 15.9359C40.3448 15.9465 40.4045 15.9696 40.464 16.0056C40.5221 16.0407 40.5679 16.0805 40.602 16.1253C40.6362 16.17 40.6593 16.2156 40.6718 16.263C40.6846 16.3097 40.6869 16.3565 40.68 16.4043C40.6735 16.4514 40.6583 16.4941 40.6357 16.5315C40.5995 16.5912 40.5518 16.6338 40.4922 16.658C40.4326 16.6823 40.3655 16.6983 40.2916 16.7065C40.2171 16.7143 40.1389 16.7171 40.0567 16.7138C39.9742 16.7112 39.8923 16.709 39.8114 16.7083C39.6708 16.7114 39.5503 16.7257 39.4482 16.7521C39.3462 16.7785 39.2565 16.8161 39.1781 16.8652C39.0997 16.9142 39.03 16.9741 38.9705 17.0439C38.9104 17.1133 38.8536 17.193 38.8002 17.2813L40.1294 18.0851L40.29 17.8195L39.2703 17.2029C39.317 17.1495 39.375 17.1057 39.4441 17.0752Z" fill="#003D5F"/>
<path d="M41.297 4.63612C41.1808 4.56581 41.0319 4.60008 40.9637 4.71282L39.2509 7.54509C39.1827 7.65783 39.2215 7.8056 39.3378 7.8759C39.454 7.9462 39.6029 7.91194 39.6711 7.79919L41.2606 5.17069L43.9708 6.80967C44.0871 6.87997 44.236 6.84571 44.3041 6.73296C44.3723 6.62021 44.3335 6.47245 44.2173 6.40215L41.297 4.63612Z" fill="#003D5F"/>
<path d="M52.771 15.9996C52.8872 16.0699 53.0361 16.0357 53.1043 15.9229L54.8171 13.0907C54.8853 12.9779 54.8465 12.8301 54.7302 12.7598L51.8099 10.9938C51.6937 10.9235 51.5448 10.9578 51.4766 11.0705C51.4084 11.1833 51.4472 11.331 51.5635 11.4013L54.2737 13.0403L52.6841 15.6688C52.6163 15.7809 52.6554 15.9297 52.771 15.9996Z" fill="#003D5F"/>
<path d="M37.2189 17.9743L34.5088 16.3354L36.0984 13.7069C36.1665 13.5941 36.1277 13.4463 36.0115 13.376C35.8952 13.3057 35.7464 13.34 35.6782 13.4528L33.9654 16.285C33.8972 16.3978 33.936 16.5455 34.0522 16.6158L36.9725 18.3819C37.0888 18.4522 37.2376 18.4179 37.3058 18.3052C37.374 18.1924 37.3345 18.0442 37.2189 17.9743Z" fill="#003D5F"/>
<path d="M49.4448 21.4998C49.3285 21.4295 49.1796 21.4638 49.1114 21.5765L47.5219 24.205L44.8117 22.566C44.6954 22.4957 44.5465 22.53 44.4784 22.6427C44.4102 22.7555 44.449 22.9033 44.5652 22.9736L47.4855 24.7396C47.6018 24.8099 47.7506 24.7756 47.8188 24.6629L49.5316 21.8306C49.5998 21.7179 49.561 21.5701 49.4448 21.4998Z" fill="#003D5F"/>
<path d="M52.2259 18.4982L49.7314 16.9897C50.4287 15.7955 51.1093 14.6701 51.8699 13.4567C51.9395 13.3448 51.9029 13.1965 51.7875 13.1248C51.6717 13.0539 51.5226 13.0852 51.453 13.1971C50.6919 14.413 50.0094 15.5401 49.3108 16.7363L48.8626 16.4652C49.5908 15.2832 50.3162 14.0838 51.0188 12.8983C51.0858 12.7858 51.0462 12.6394 50.9307 12.5696C50.93 12.5691 50.9293 12.5687 50.9286 12.5683C50.8119 12.4987 50.6629 12.5347 50.5961 12.6483C49.894 13.8331 49.1694 15.0312 48.4421 16.2118L47.9897 15.9382C48.6795 14.7358 49.4043 13.5388 50.1442 12.3787C50.2152 12.2677 50.1797 12.1191 50.0651 12.0461C49.9488 11.9711 49.8007 12.004 49.7297 12.1151C48.9872 13.2782 48.2614 14.4783 47.5695 15.6841L47.1206 15.4127C47.8413 14.2224 48.5626 13.0298 49.2766 11.8475C49.3448 11.7348 49.306 11.587 49.1897 11.5167C49.0735 11.4464 48.9242 11.4814 48.8564 11.5934C48.1424 12.7757 47.4211 13.9683 46.7004 15.1585L46.2515 14.8871C46.9994 13.7152 47.7256 12.5143 48.4083 11.3159C48.4724 11.2035 48.432 11.0585 48.3185 10.9899C48.3171 10.989 48.315 10.9878 48.3129 10.9865C48.195 10.9189 48.0466 10.9571 47.9823 11.0713C47.3006 12.2666 46.5765 13.464 45.831 14.6319L45.3786 14.3583C46.0882 13.166 46.8128 11.9679 47.5345 10.7949C47.6034 10.6826 47.5657 10.5346 47.4499 10.4636C47.4492 10.4632 47.4492 10.4632 47.4485 10.4628C47.3329 10.3929 47.1844 10.4265 47.116 10.5381C46.3945 11.7121 45.6684 12.9112 44.9584 14.1042L44.5095 13.8327C45.248 12.656 45.9737 11.4558 46.6662 10.2633C46.7315 10.1507 46.6914 10.005 46.5773 9.93593C46.5759 9.93508 46.5752 9.93466 46.5738 9.93381C46.4563 9.86555 46.308 9.90201 46.2419 10.016C45.55 11.206 44.8265 12.4039 44.0894 13.5786L43.637 13.305C44.337 12.1079 45.0612 10.9104 45.7916 9.74372C45.8612 9.63182 45.8246 9.48354 45.7092 9.41188C45.5936 9.342 45.4443 9.37228 45.3747 9.48418C44.643 10.6529 43.9177 11.8524 43.2157 13.0512L42.7682 12.7805C43.4971 11.599 44.2225 10.3995 44.9247 9.21296C44.9918 9.10047 44.9515 8.95364 44.8366 8.88419C44.8359 8.88376 44.8352 8.88334 44.8345 8.88292C44.7174 8.81397 44.5688 8.84934 44.5021 8.96293C43.801 10.1474 43.0761 11.3462 42.348 12.5264L41.8956 12.2529C42.5861 11.0509 43.3103 9.85345 44.0501 8.69333C44.1211 8.58228 44.0856 8.43375 43.971 8.36073C43.8582 8.28788 43.7067 8.31867 43.6357 8.42972C42.8938 9.59323 42.168 10.7934 41.4754 11.9987L41.0265 11.7273C41.748 10.5375 42.4692 9.34481 43.1825 8.16216C43.2507 8.04941 43.2119 7.90165 43.0957 7.83135C42.9794 7.76104 42.8301 7.79599 42.7623 7.90805C42.049 9.09071 41.3278 10.2834 40.6063 11.4732L40.1581 11.2021C40.9047 10.034 41.5863 8.90546 42.2981 7.65883C42.3635 7.54439 42.3189 7.39502 42.2034 7.32981C42.0855 7.26222 41.9371 7.30047 41.8721 7.41423C41.1624 8.65747 40.4829 9.78264 39.7377 10.9469L37.2432 9.43838C37.1269 9.36808 36.9781 9.40234 36.9099 9.51509L36.0465 10.9428C35.9783 11.0555 36.0171 11.2033 36.1333 11.2736L38.6264 12.7813L37.2849 14.9995C37.2168 15.1123 37.2556 15.26 37.3718 15.3304C37.4881 15.4007 37.6369 15.3664 37.7051 15.2536L39.0466 13.0354L39.4969 13.3077L39.3223 13.5964C39.2542 13.7091 39.293 13.8569 39.4092 13.9272C39.5255 13.9975 39.6743 13.9632 39.7425 13.8505L39.9171 13.5618L40.3674 13.8341L40.1928 14.1228C40.1246 14.2355 40.1634 14.3833 40.2797 14.4536C40.3959 14.5239 40.5448 14.4896 40.613 14.3769L40.7876 14.0882L41.2379 14.3605L41.0633 14.6492C40.9951 14.7619 41.0339 14.9097 41.1502 14.98C41.2664 15.0503 41.4153 15.016 41.4835 14.9033L41.6581 14.6146L42.1084 14.887L41.9338 15.1756C41.8656 15.2884 41.9044 15.4361 42.0207 15.5064C42.1369 15.5767 42.2858 15.5425 42.354 15.4297L42.5285 15.1411L42.9788 15.4134L42.8043 15.702C42.7361 15.8148 42.7749 15.9625 42.8911 16.0329C43.0074 16.1032 43.1563 16.0689 43.2244 15.9561L43.399 15.6675L43.8493 15.9398L43.6747 16.2285C43.6066 16.3412 43.6454 16.489 43.7616 16.5593C43.8779 16.6296 44.0267 16.5953 44.0949 16.4826L44.2695 16.1939L44.7198 16.4662L44.5452 16.7549C44.477 16.8676 44.5158 17.0154 44.6321 17.0857C44.7483 17.156 44.8972 17.1217 44.9654 17.009L45.14 16.7203L45.5903 16.9926L45.4157 17.2813C45.3475 17.394 45.3863 17.5418 45.5026 17.6121C45.6188 17.6824 45.7677 17.6482 45.8359 17.5354L46.0105 17.2467L46.4607 17.5191L46.2862 17.8077C46.218 17.9205 46.2568 18.0682 46.373 18.1385C46.4893 18.2088 46.6382 18.1746 46.7064 18.0618L46.8809 17.7732L47.3312 18.0455L47.1567 18.3341C47.0885 18.4469 47.1273 18.5947 47.2435 18.665C47.3598 18.7353 47.5087 18.701 47.5768 18.5882L47.7514 18.2996L48.2017 18.5719L46.8602 20.7902C46.792 20.9029 46.8308 21.0507 46.9471 21.121C47.0633 21.1913 47.2122 21.157 47.2804 21.0443L48.6219 18.826L51.115 20.3337C51.2312 20.404 51.3801 20.3697 51.4483 20.257L52.3121 18.8286C52.3806 18.717 52.3415 18.5681 52.2259 18.4982ZM51.152 19.7996L36.5899 10.9931L37.2072 9.97228L51.7694 18.7787L51.152 19.7996Z" fill="#003D5F"/>
</g>
<path d="M199.874 273.875V195.875C199.874 172.894 199.874 161.404 192.734 154.264C185.595 147.125 174.105 147.125 151.124 147.125H82.8738C59.8929 147.125 48.4023 147.125 41.2631 154.264C34.1238 161.404 34.1238 172.894 34.1238 195.875V273.875" stroke="#003D5F" stroke-width="6" stroke-linecap="round" stroke-linejoin="round"/>
<path d="M214.345 312.875H19.6528C15.9191 312.875 13.4908 309.061 15.1606 305.82L34.1239 273.875H199.874L218.837 305.82C220.507 309.061 218.078 312.875 214.345 312.875Z" stroke="#003D5F" stroke-width="6" stroke-linecap="round" stroke-linejoin="round"/>
<path d="M73.1238 210.5H92.6238L107.249 234.875L126.749 186.125L141.374 210.5H160.874" stroke="#54819A" stroke-width="6" stroke-linecap="round" stroke-linejoin="round"/>
<defs>
<clipPath id="clip0_2741_6733">
<rect width="21.9963" height="21.9963" fill="white" transform="translate(76.1016 85.0197) rotate(-21.0988)"/>
</clipPath>
<clipPath id="clip1_2741_6733">
<rect width="22.9387" height="22.9387" fill="white" transform="translate(159 117.065) rotate(-31.7345)"/>
</clipPath>
<clipPath id="clip2_2741_6733">
<rect width="18" height="14" fill="white" transform="translate(40.2451 4) rotate(31.1634)"/>
</clipPath>
</defs>
</svg>
